<svg width="333" height="99" viewBox="0 0 333 99" fill="none" xmlns="http://www.w3.org/2000/svg">
<path d="M12.3958 92.3958H17.25V93.7917H11V80.1875H12.3958V92.3958Z" fill="#E1E2F8"/>
<path d="M25.2435 92.2917C24.5872 93.4167 23.6081 93.9792 22.306 93.9792C21.3164 93.9792 20.5404 93.6563 19.9727 93C19.431 92.349 19.1602 91.5156 19.1602 90.5V85H20.556V90.5C20.556 91.0729 20.6862 91.5573 20.9518 91.9583C21.2122 92.3646 21.6445 92.5625 22.2435 92.5625C23.3372 92.5625 24.1081 92.224 24.556 91.5417C25.0143 90.8646 25.2435 89.9063 25.2435 88.6667V85H26.6393V93.7917H25.2435V92.2917Z" fill="#E1E2F8"/>
<path d="M34.5273 93.7917L32.319 90.375L30.1107 93.7917H28.3398L31.4232 89.375L28.3398 85H30.1107L32.319 88.375L34.5273 85H36.2982L33.2148 89.3958L36.2982 93.7917H34.5273Z" fill="#E1E2F8"/>
<path d="M44.3831 92.2917C43.7269 93.4167 42.7477 93.9792 41.4456 93.9792C40.4561 93.9792 39.68 93.6563 39.1123 93C38.5706 92.349 38.2998 91.5156 38.2998 90.5V85H39.6956V90.5C39.6956 91.0729 39.8258 91.5573 40.0915 91.9583C40.3519 92.3646 40.7842 92.5625 41.3831 92.5625C42.4769 92.5625 43.2477 92.224 43.6956 91.5417C44.154 90.8646 44.3831 89.9063 44.3831 88.6667V85H45.779V93.7917H44.3831V92.2917Z" fill="#E1E2F8"/>
<path d="M53.0003 86.8125C52.6774 86.5208 52.3337 86.375 51.9587 86.375C51.5941 86.375 51.292 86.474 51.042 86.6667C50.7764 86.8906 50.5524 87.1458 50.3753 87.4375C50.042 88.0208 49.8753 88.6771 49.8753 89.3958V93.7917H48.4795V85H49.8753V86.8125L49.9378 86.4583C50.4066 85.3646 51.1357 84.8125 52.1253 84.8125C52.4274 84.8125 52.7191 84.875 53.0003 85V86.8125Z" fill="#E1E2F8"/>
<path d="M55.8249 98.7917H54.1165L57.0749 92.3542L53.4082 85H54.9915L57.8249 90.8958L60.3457 85H61.9082L55.8249 98.7917Z" fill="#E1E2F8"/>
<path d="M81.0794 89.6252C80.5794 90.9325 79.7513 91.9793 78.6003 92.771C77.4336 93.5939 76.1628 94.0002 74.7878 94.0002C72.8971 94.0002 71.2878 93.3075 69.9544 91.9168C68.6471 90.5575 67.9961 88.9272 67.9961 87.021C67.9961 86.0627 68.168 85.1616 68.5169 84.3127C68.8607 83.4689 69.3398 82.7241 69.9544 82.0835C71.2878 80.7085 72.8971 80.021 74.7878 80.021C76.1628 80.021 77.4232 80.4116 78.5794 81.1877C79.7305 81.995 80.5586 83.0418 81.0586 84.3335H79.5169C78.7773 82.9897 77.6888 82.0939 76.2461 81.646C75.7565 81.521 75.2044 81.4585 74.5794 81.4585C73.9544 81.4585 73.3138 81.6043 72.6628 81.896C72.0065 82.2033 71.4388 82.6043 70.9544 83.1043C69.9128 84.1877 69.3919 85.495 69.3919 87.021C69.3919 88.521 69.9128 89.8127 70.9544 90.896C72.0065 91.995 73.2878 92.5418 74.7878 92.5418C75.7982 92.5418 76.7305 92.2814 77.5794 91.7502C78.4232 91.2241 79.0794 90.5158 79.5378 89.6252H81.0794Z" fill="#E1E2F8"/>
<path d="M90.1794 89.3957C90.1794 88.5363 89.8877 87.7863 89.3044 87.1457C88.7054 86.5103 87.9606 86.1873 87.0752 86.1873C86.2002 86.1873 85.471 86.5103 84.8877 87.1457C84.2731 87.7863 83.971 88.5363 83.971 89.3957C83.971 90.2446 84.2731 90.9894 84.8877 91.6248C85.471 92.2655 86.2002 92.5832 87.0752 92.5832C87.9606 92.5832 88.7054 92.2655 89.3044 91.6248C89.8877 90.9894 90.1794 90.2446 90.1794 89.3957ZM91.5752 93.7915H90.1794V92.2915C90.096 92.4061 90.0127 92.4998 89.9294 92.5832C89.096 93.5311 88.0752 93.9998 86.8669 93.9998C85.6429 93.9998 84.6221 93.5311 83.8044 92.5832C82.9814 91.6821 82.5752 90.6196 82.5752 89.3957C82.5752 88.1613 82.9814 87.0936 83.8044 86.1873C84.6221 85.2603 85.6429 84.7915 86.8669 84.7915C88.0752 84.7915 89.096 85.2603 89.9294 86.1873C90.0127 86.2863 90.096 86.3905 90.1794 86.4998V84.9998H91.5752V93.7915Z" fill="#E1E2F8"/>
<path d="M99.1009 86.8125C98.778 86.5208 98.4342 86.375 98.0592 86.375C97.6947 86.375 97.3926 86.474 97.1426 86.6667C96.877 86.8906 96.653 87.1458 96.4759 87.4375C96.1426 88.0208 95.9759 88.6771 95.9759 89.3958V93.7917H94.5801V85H95.9759V86.8125L96.0384 86.4583C96.5072 85.3646 97.2363 84.8125 98.2259 84.8125C98.528 84.8125 98.8197 84.875 99.1009 85V86.8125Z" fill="#E1E2F8"/>
<path d="M109.971 87.375C107.205 86.7396 105.825 85.5521 105.825 83.8125C105.825 82.5365 106.268 81.5781 107.159 80.9375C108.044 80.3125 109.096 80 110.304 80C112.955 80 114.523 80.9896 115.013 82.9583H113.492C113.226 81.7813 112.164 81.1875 110.304 81.1875C108.997 81.1875 108.08 81.5781 107.554 82.3542C107.356 82.6458 107.263 83.0156 107.263 83.4583C107.263 84.2917 107.711 84.9375 108.617 85.3958C109.044 85.6198 109.955 85.9115 111.346 86.2708C112.731 86.6354 113.742 87.0365 114.367 87.4792C115.226 88.0938 115.659 88.9479 115.659 90.0417C115.659 91.4167 115.117 92.4583 114.034 93.1667C113.127 93.75 112.013 94.0417 110.679 94.0417C107.664 94.0417 105.919 92.8958 105.45 90.6042H107.096C107.346 92.0521 108.539 92.7708 110.679 92.7708C112.19 92.7708 113.252 92.3542 113.867 91.5208C114.101 91.1875 114.221 90.7292 114.221 90.1458C114.221 89.5938 113.997 89.1354 113.554 88.7708C112.929 88.2708 111.731 87.8073 109.971 87.375Z" fill="#E1E2F8"/>
<path d="M126.284 89.1875V89.9375H118.534C118.669 90.6875 119.039 91.3073 119.638 91.7917C120.247 92.2917 120.929 92.5417 121.679 92.5417C122.179 92.5417 122.664 92.4167 123.138 92.1667C123.596 91.9479 123.976 91.625 124.284 91.2083H125.888C125.513 92.0573 124.95 92.7187 124.2 93.1875C123.435 93.6875 122.669 93.9375 121.909 93.9375C121.117 93.9375 120.45 93.8125 119.909 93.5625C119.336 93.3281 118.846 93 118.429 92.5833C117.523 91.7083 117.075 90.6354 117.075 89.3542C117.075 88.0937 117.523 87 118.429 86.0833C119.33 85.1979 120.414 84.75 121.679 84.75C122.898 84.75 123.976 85.1823 124.909 86.0417C125.825 86.9323 126.284 87.9792 126.284 89.1875ZM124.804 88.7292C124.638 87.9792 124.263 87.3646 123.679 86.875C123.096 86.3906 122.429 86.1458 121.679 86.1458C120.523 86.1458 119.622 86.6615 118.971 87.6875C118.773 88.0104 118.638 88.3542 118.554 88.7292H124.804Z" fill="#E1E2F8"/>
<path d="M133.101 86.8125C132.778 86.5208 132.434 86.375 132.059 86.375C131.695 86.375 131.393 86.474 131.143 86.6667C130.877 86.8906 130.653 87.1458 130.476 87.4375C130.143 88.0208 129.976 88.6771 129.976 89.3958V93.7917H128.58V85H129.976V86.8125L130.038 86.4583C130.507 85.3646 131.236 84.8125 132.226 84.8125C132.528 84.8125 132.82 84.875 133.101 85V86.8125Z" fill="#E1E2F8"/>
<path d="M137.549 94.625L133.508 85H135.029L137.549 91.5417L140.07 85H141.591L137.549 94.625Z" fill="#E1E2F8"/>
<path d="M144.716 81.9583C144.893 82.125 144.987 82.3281 144.987 82.5625C144.987 82.8281 144.893 83.0417 144.716 83.2083C144.549 83.3906 144.341 83.4792 144.091 83.4792C143.841 83.4792 143.633 83.3906 143.466 83.2083C143.284 83.0417 143.195 82.8281 143.195 82.5625C143.195 82.3281 143.284 82.125 143.466 81.9583C143.633 81.7813 143.841 81.6875 144.091 81.6875C144.341 81.6875 144.549 81.7813 144.716 81.9583ZM144.799 93.7917H143.404V85H144.799V93.7917Z" fill="#E1E2F8"/>
<path d="M156.109 88.1458H154.588C154.338 87.5937 153.963 87.1406 153.463 86.7917C152.947 86.4479 152.432 86.2708 151.921 86.2708C151.39 86.2708 150.947 86.3542 150.588 86.5208C150.213 86.6875 149.89 86.9115 149.63 87.1875C149.015 87.8125 148.713 88.5521 148.713 89.3958C148.713 90.2448 149.015 90.974 149.63 91.5833C150.213 92.224 150.926 92.5417 151.775 92.5417C152.343 92.5417 152.864 92.3906 153.338 92.0833C153.807 91.7917 154.176 91.4063 154.442 90.9167H156.025C155.525 92.3333 154.567 93.2813 153.15 93.75C152.718 93.9167 152.218 94 151.65 94C151.093 94 150.546 93.8646 150.005 93.6042C149.447 93.3698 148.973 93.0365 148.588 92.6042C147.713 91.7031 147.275 90.6354 147.275 89.3958C147.275 88.1458 147.713 87.0729 148.588 86.1667C149.463 85.2656 150.525 84.8125 151.775 84.8125C152.786 84.8125 153.702 85.125 154.525 85.75C155.286 86.349 155.817 87.1458 156.109 88.1458Z" fill="#E1E2F8"/>
<path d="M166.904 89.1875V89.9375H159.154C159.289 90.6875 159.659 91.3073 160.258 91.7917C160.867 92.2917 161.549 92.5417 162.299 92.5417C162.799 92.5417 163.284 92.4167 163.758 92.1667C164.216 91.9479 164.596 91.625 164.904 91.2083H166.508C166.133 92.0573 165.57 92.7187 164.82 93.1875C164.055 93.6875 163.289 93.9375 162.529 93.9375C161.737 93.9375 161.07 93.8125 160.529 93.5625C159.956 93.3281 159.466 93 159.049 92.5833C158.143 91.7083 157.695 90.6354 157.695 89.3542C157.695 88.0937 158.143 87 159.049 86.0833C159.951 85.1979 161.034 84.75 162.299 84.75C163.518 84.75 164.596 85.1823 165.529 86.0417C166.445 86.9323 166.904 87.9792 166.904 89.1875ZM165.424 88.7292C165.258 87.9792 164.883 87.3646 164.299 86.875C163.716 86.3906 163.049 86.1458 162.299 86.1458C161.143 86.1458 160.242 86.6615 159.591 87.6875C159.393 88.0104 159.258 88.3542 159.174 88.7292H165.424Z" fill="#E1E2F8"/>
<path d="M170.47 92.5415C170.814 92.7811 171.272 92.8957 171.845 92.8957C173.121 92.8957 173.762 92.4165 173.762 91.4582C173.762 90.8905 173.304 90.4582 172.387 90.1665C171.996 90.0415 171.58 89.9269 171.137 89.8123C170.679 89.703 170.262 89.5623 169.887 89.3957C169.429 89.1769 169.085 88.9061 168.866 88.5832C168.627 88.2655 168.512 87.8905 168.512 87.4582C168.512 86.5728 168.825 85.9113 169.45 85.479C170.059 85.0207 170.788 84.7915 171.637 84.7915C172.496 84.7915 173.205 84.9686 173.762 85.3123C174.314 85.6613 174.7 86.2811 174.908 87.1665H173.408C173.241 86.6821 173.002 86.354 172.7 86.1873C172.408 86.0363 172.038 85.9582 171.595 85.9582C171.163 85.9582 170.788 86.0519 170.47 86.229C170.147 86.4373 169.991 86.729 169.991 87.104C169.991 87.5103 170.127 87.8071 170.408 87.9998C170.658 88.1665 170.976 88.3228 171.366 88.4582C171.752 88.5728 172.168 88.6769 172.616 88.7707C173.059 88.8853 173.481 89.0311 173.887 89.2082C174.788 89.6405 175.241 90.328 175.241 91.2707C175.241 92.2186 174.897 92.9165 174.22 93.3748C173.871 93.5988 173.491 93.7707 173.075 93.8957C172.668 93.9894 172.231 94.0415 171.762 94.0415C169.72 94.0415 168.543 93.1405 168.241 91.3332H169.72C169.871 91.9061 170.121 92.3071 170.47 92.5415Z" fill="#E1E2F8"/>
<path d="M189.639 89.3957C189.639 88.5363 189.348 87.7863 188.764 87.1457C188.165 86.5103 187.421 86.1873 186.535 86.1873C185.66 86.1873 184.931 86.5103 184.348 87.1457C183.733 87.7863 183.431 88.5363 183.431 89.3957C183.431 90.2446 183.733 90.9894 184.348 91.6248C184.931 92.2655 185.66 92.5832 186.535 92.5832C187.421 92.5832 188.165 92.2655 188.764 91.6248C189.348 90.9894 189.639 90.2446 189.639 89.3957ZM191.035 93.7915H189.639V92.2915C189.556 92.4061 189.473 92.4998 189.389 92.5832C188.556 93.5311 187.535 93.9998 186.327 93.9998C185.103 93.9998 184.082 93.5311 183.264 92.5832C182.441 91.6821 182.035 90.6196 182.035 89.3957C182.035 88.1613 182.441 87.0936 183.264 86.1873C184.082 85.2603 185.103 84.7915 186.327 84.7915C187.535 84.7915 188.556 85.2603 189.389 86.1873C189.473 86.2863 189.556 86.3905 189.639 86.4998V84.9998H191.035V93.7915Z" fill="#E1E2F8"/>
<path d="M192.936 86.2917V85H195.144V81.5625H196.54V85H198.727V86.2917H196.54V93.7917H195.144V86.2917H192.936Z" fill="#E1E2F8"/>
<path d="M207.144 98.7917H205.436L208.394 92.3542L204.728 85H206.311L209.144 90.8958L211.665 85H213.228L207.144 98.7917Z" fill="#E1E2F8"/>
<path d="M221.728 89.3542C221.728 88.4792 221.405 87.724 220.769 87.0833C220.144 86.4583 219.394 86.1458 218.519 86.1458C217.644 86.1458 216.894 86.4583 216.269 87.0833C215.629 87.724 215.311 88.4792 215.311 89.3542C215.311 90.2187 215.629 90.9583 216.269 91.5833C216.894 92.224 217.644 92.5417 218.519 92.5417C219.394 92.5417 220.144 92.224 220.769 91.5833C221.405 90.9583 221.728 90.2187 221.728 89.3542ZM223.123 89.3542C223.123 90.6354 222.67 91.7083 221.769 92.5833C220.853 93.4896 219.769 93.9375 218.519 93.9375C217.269 93.9375 216.186 93.4896 215.269 92.5833C214.363 91.7083 213.915 90.6354 213.915 89.3542C213.915 88.0937 214.363 87 215.269 86.0833C216.17 85.1979 217.254 84.75 218.519 84.75C219.78 84.75 220.863 85.1979 221.769 86.0833C222.67 87 223.123 88.0937 223.123 89.3542Z" fill="#E1E2F8"/>
<path d="M231.603 92.2917C230.947 93.4167 229.967 93.9792 228.665 93.9792C227.676 93.9792 226.9 93.6563 226.332 93C225.79 92.349 225.52 91.5156 225.52 90.5V85H226.915V90.5C226.915 91.0729 227.046 91.5573 227.311 91.9583C227.572 92.3646 228.004 92.5625 228.603 92.5625C229.697 92.5625 230.467 92.224 230.915 91.5417C231.374 90.8646 231.603 89.9063 231.603 88.6667V85H232.999V93.7917H231.603V92.2917Z" fill="#E1E2F8"/>
<path d="M240.22 86.8125C239.897 86.5208 239.553 86.375 239.178 86.375C238.814 86.375 238.512 86.474 238.262 86.6667C237.996 86.8906 237.772 87.1458 237.595 87.4375C237.262 88.0208 237.095 88.6771 237.095 89.3958V93.7917H235.699V85H237.095V86.8125L237.158 86.4583C237.626 85.3646 238.355 84.8125 239.345 84.8125C239.647 84.8125 239.939 84.875 240.22 85V86.8125Z" fill="#E1E2F8"/>
<path d="M257.882 87C257.882 87.9896 257.7 88.8906 257.34 89.7083C256.965 90.5573 256.465 91.2813 255.84 91.875C255.215 92.474 254.47 92.9375 253.611 93.2708C252.762 93.6198 251.851 93.7917 250.882 93.7917H247.319V80.1875H250.882C251.851 80.1875 252.762 80.3542 253.611 80.6875C254.47 81.0365 255.215 81.5104 255.84 82.1042C256.465 82.7187 256.965 83.4323 257.34 84.25C257.7 85.099 257.882 86.0156 257.882 87ZM256.528 87C256.528 85.4479 255.976 84.1458 254.882 83.1042C253.809 82.0937 252.491 81.5833 250.924 81.5833H248.715V92.3958H250.924C252.491 92.3958 253.809 91.8906 254.882 90.875C255.976 89.8333 256.528 88.5417 256.528 87Z" fill="#E1E2F8"/>
<path d="M267.488 89.3542C267.488 88.4792 267.165 87.724 266.53 87.0833C265.905 86.4583 265.155 86.1458 264.28 86.1458C263.405 86.1458 262.655 86.4583 262.03 87.0833C261.389 87.724 261.072 88.4792 261.072 89.3542C261.072 90.2187 261.389 90.9583 262.03 91.5833C262.655 92.224 263.405 92.5417 264.28 92.5417C265.155 92.5417 265.905 92.224 266.53 91.5833C267.165 90.9583 267.488 90.2187 267.488 89.3542ZM268.884 89.3542C268.884 90.6354 268.431 91.7083 267.53 92.5833C266.613 93.4896 265.53 93.9375 264.28 93.9375C263.03 93.9375 261.947 93.4896 261.03 92.5833C260.124 91.7083 259.676 90.6354 259.676 89.3542C259.676 88.0937 260.124 87 261.03 86.0833C261.931 85.1979 263.014 84.75 264.28 84.75C265.54 84.75 266.624 85.1979 267.53 86.0833C268.431 87 268.884 88.0937 268.884 89.3542Z" fill="#E1E2F8"/>
<path d="M278.488 89.3542C278.488 88.4792 278.165 87.724 277.53 87.0833C276.905 86.4583 276.155 86.1458 275.28 86.1458C274.405 86.1458 273.655 86.4583 273.03 87.0833C272.389 87.724 272.072 88.4792 272.072 89.3542C272.072 90.2187 272.389 90.9583 273.03 91.5833C273.655 92.224 274.405 92.5417 275.28 92.5417C276.155 92.5417 276.905 92.224 277.53 91.5833C278.165 90.9583 278.488 90.2187 278.488 89.3542ZM279.884 89.3542C279.884 90.6354 279.431 91.7083 278.53 92.5833C277.613 93.4896 276.53 93.9375 275.28 93.9375C274.03 93.9375 272.947 93.4896 272.03 92.5833C271.124 91.7083 270.676 90.6354 270.676 89.3542C270.676 88.0937 271.124 87 272.03 86.0833C272.931 85.1979 274.014 84.75 275.28 84.75C276.54 84.75 277.624 85.1979 278.53 86.0833C279.431 87 279.884 88.0937 279.884 89.3542Z" fill="#E1E2F8"/>
<path d="M286.801 86.8125C286.478 86.5208 286.134 86.375 285.759 86.375C285.395 86.375 285.093 86.474 284.843 86.6667C284.577 86.8906 284.353 87.1458 284.176 87.4375C283.843 88.0208 283.676 88.6771 283.676 89.3958V93.7917H282.28V85H283.676V86.8125L283.739 86.4583C284.207 85.3646 284.937 84.8125 285.926 84.8125C286.228 84.8125 286.52 84.875 286.801 85V86.8125Z" fill="#E1E2F8"/>
<path d="M289.77 92.5415C290.114 92.7811 290.572 92.8957 291.145 92.8957C292.421 92.8957 293.062 92.4165 293.062 91.4582C293.062 90.8905 292.604 90.4582 291.687 90.1665C291.296 90.0415 290.88 89.9269 290.437 89.8123C289.979 89.703 289.562 89.5623 289.187 89.3957C288.729 89.1769 288.385 88.9061 288.166 88.5832C287.926 88.2655 287.812 87.8905 287.812 87.4582C287.812 86.5728 288.124 85.9113 288.749 85.479C289.359 85.0207 290.088 84.7915 290.937 84.7915C291.796 84.7915 292.505 84.9686 293.062 85.3123C293.614 85.6613 293.999 86.2811 294.208 87.1665H292.708C292.541 86.6821 292.301 86.354 291.999 86.1873C291.708 86.0363 291.338 85.9582 290.895 85.9582C290.463 85.9582 290.088 86.0519 289.77 86.229C289.447 86.4373 289.291 86.729 289.291 87.104C289.291 87.5103 289.426 87.8071 289.708 87.9998C289.958 88.1665 290.275 88.3228 290.666 88.4582C291.051 88.5728 291.468 88.6769 291.916 88.7707C292.359 88.8853 292.781 89.0311 293.187 89.2082C294.088 89.6405 294.541 90.328 294.541 91.2707C294.541 92.2186 294.197 92.9165 293.52 93.3748C293.171 93.5988 292.791 93.7707 292.374 93.8957C291.968 93.9894 291.531 94.0415 291.062 94.0415C289.02 94.0415 287.843 93.1405 287.541 91.3332H289.02C289.171 91.9061 289.421 92.3071 289.77 92.5415Z" fill="#E1E2F8"/>
<path d="M295.436 86.2917V85H297.644V81.5625H299.04V85H301.227V86.2917H299.04V93.7917H297.644V86.2917H295.436Z" fill="#E1E2F8"/>
<path d="M311.724 89.1875V89.9375H303.974C304.109 90.6875 304.479 91.3073 305.078 91.7917C305.687 92.2917 306.37 92.5417 307.12 92.5417C307.62 92.5417 308.104 92.4167 308.578 92.1667C309.036 91.9479 309.417 91.625 309.724 91.2083H311.328C310.953 92.0573 310.391 92.7187 309.641 93.1875C308.875 93.6875 308.109 93.9375 307.349 93.9375C306.557 93.9375 305.891 93.8125 305.349 93.5625C304.776 93.3281 304.286 93 303.87 92.5833C302.964 91.7083 302.516 90.6354 302.516 89.3542C302.516 88.0937 302.964 87 303.87 86.0833C304.771 85.1979 305.854 84.75 307.12 84.75C308.339 84.75 309.417 85.1823 310.349 86.0417C311.266 86.9323 311.724 87.9792 311.724 89.1875ZM310.245 88.7292C310.078 87.9792 309.703 87.3646 309.12 86.875C308.536 86.3906 307.87 86.1458 307.12 86.1458C305.964 86.1458 305.062 86.6615 304.411 87.6875C304.214 88.0104 304.078 88.3542 303.995 88.7292H310.245Z" fill="#E1E2F8"/>
<path d="M315.415 98.7915H314.02V84.9998H315.415V86.4998C315.499 86.3905 315.587 86.2863 315.686 86.1873C316.504 85.2603 317.525 84.7915 318.749 84.7915C319.957 84.7915 320.978 85.2603 321.811 86.1873C322.613 87.0936 323.02 88.1613 323.02 89.3957C323.02 90.6196 322.613 91.6821 321.811 92.5832C320.978 93.5311 319.957 93.9998 318.749 93.9998C317.525 93.9998 316.504 93.5311 315.686 92.5832C315.587 92.4998 315.499 92.4061 315.415 92.2915V98.7915ZM321.624 89.3957C321.624 88.5363 321.332 87.7863 320.749 87.1457C320.134 86.5103 319.395 86.1873 318.52 86.1873C317.645 86.1873 316.905 86.5103 316.311 87.1457C315.712 87.7863 315.415 88.5363 315.415 89.3957C315.415 90.2446 315.712 90.9894 316.311 91.6248C316.905 92.2655 317.645 92.5832 318.52 92.5832C319.395 92.5832 320.134 92.2655 320.749 91.6248C321.332 90.9894 321.624 90.2446 321.624 89.3957Z" fill="#E1E2F8"/>
<path d="M36.4985 14.2778C32.7864 14.2778 29.3829 15.2673 26.2912 17.2396C23.2062 19.2052 20.7315 21.8216 18.8738 25.0888C17.0228 28.356 16.0973 31.9618 16.0973 35.8997C16.0973 39.7778 17.0228 43.3704 18.8738 46.6708C20.7315 49.9646 23.2062 52.6009 26.2912 54.5731C29.3829 56.5388 32.7864 57.5216 36.4985 57.5216C38.7586 57.5216 41.1427 57.1995 43.6476 56.5521C46.1592 55.9079 48.4964 54.6661 50.6626 52.8333C52.1954 51.5344 53.4958 49.8253 54.5626 47.7035C55.2352 46.3657 54.1866 44.8778 52.6892 44.8778H40.1146C38.9175 44.8778 37.9471 43.9074 37.9471 42.7103V35.5172C37.9471 34.3201 38.9175 33.3497 40.1146 33.3497H70.2779C71.4749 33.3497 72.4454 34.3201 72.4454 35.5172V35.7005C72.4454 40.5979 71.5199 45.2065 69.6689 49.5263C67.8179 53.8394 65.2426 57.6478 61.943 60.9481C58.6434 64.2419 54.8274 66.8118 50.5017 68.6513C46.1827 70.4841 41.515 71.4005 36.4985 71.4005C31.5524 71.4005 26.8981 70.4642 22.5356 68.5981C18.1797 66.7222 14.3536 64.1556 11.054 60.895C7.75442 57.6278 5.15901 53.8394 3.27448 49.5263C1.3866 45.2065 0.444336 40.5979 0.444336 35.7005C0.444336 30.8063 1.3866 26.1978 3.27448 21.8747C5.15901 17.555 7.75442 13.7665 11.054 10.506C14.3536 7.23877 18.1797 4.67217 22.5356 2.80283C26.8981 0.936817 31.5524 0.000488281 36.4985 0.000488281C41.6491 0.000488281 46.5214 1.03643 51.1187 3.1083C55.7227 5.18018 59.7432 8.03564 63.177 11.6747C65.9297 14.592 68.0876 17.8913 69.6507 21.5708C70.2275 22.9285 69.1845 24.3716 67.7094 24.3716H55.0857C54.2446 24.3716 53.4887 23.8794 53.0827 23.1428C51.4163 20.1197 49.1833 17.9321 46.3839 16.5755C43.2251 15.0448 39.9322 14.2778 36.4985 14.2778Z" fill="#9A7C3C"/>
<mask id="mask0_71_42" style="mask-type:luminance" maskUnits="userSpaceOnUse" x="81" y="4" width="58" height="53">
<path d="M138.398 4.64307H81.0741V56.1624H138.398V4.64307Z" fill="white"/>
</mask>
<g mask="url(#mask0_71_42)">
<mask id="mask1_71_42" style="mask-type:luminance" maskUnits="userSpaceOnUse" x="64" y="-13" width="97" height="98">
<path d="M119.46 -12.2393L64.0686 29.1015L105.409 84.49L160.798 43.152L119.46 -12.2393Z" fill="white"/>
</mask>
<g mask="url(#mask1_71_42)">
<mask id="mask2_71_42" style="mask-type:luminance" maskUnits="userSpaceOnUse" x="64" y="-13" width="97" height="98">
<path d="M119.46 -12.2388L64.0686 29.102L105.409 84.4904L160.798 43.1525L119.46 -12.2388Z" fill="white"/>
</mask>
<g mask="url(#mask2_71_42)">
<path d="M93.8308 11.2925C107.567 1.04302 127.082 3.87466 137.334 17.6133C137.536 17.8826 137.731 18.1576 137.924 18.4353C127.263 5.0453 108.037 2.23917 94.5734 12.2902C81.1097 22.3384 78.329 41.5646 88.1306 55.5981C87.9209 55.3345 87.714 55.0681 87.5099 54.796C77.2604 41.0601 80.0949 21.5448 93.8308 11.2925Z" fill="#112A12"/>
</g>
</g>
</g>
<mask id="mask3_71_42" style="mask-type:luminance" maskUnits="userSpaceOnUse" x="97" y="25" width="36" height="32">
<path d="M132.594 25.6851H97.7637V56.8869H132.594V25.6851Z" fill="white"/>
</mask>
<g mask="url(#mask3_71_42)">
<mask id="mask4_71_42" style="mask-type:luminance" maskUnits="userSpaceOnUse" x="64" y="-13" width="97" height="98">
<path d="M119.46 -12.2407L64.0686 29.1001L105.409 84.4885L160.798 43.1505L119.46 -12.2407Z" fill="white"/>
</mask>
<g mask="url(#mask4_71_42)">
<mask id="mask5_71_42" style="mask-type:luminance" maskUnits="userSpaceOnUse" x="64" y="-13" width="97" height="98">
<path d="M119.46 -12.2412L64.0686 29.0996L105.409 84.488L160.798 43.1501L119.46 -12.2412Z" fill="white"/>
</mask>
<g mask="url(#mask5_71_42)">
<path d="M123.516 51.0698C131.441 45.1542 133.287 34.0743 127.873 25.9365C128.091 26.2001 128.309 26.4722 128.516 26.7529C129.678 28.3033 130.588 29.9927 131.24 31.8209C131.892 33.6463 132.26 35.5284 132.345 37.4672C132.348 37.5465 132.351 37.6287 132.354 37.7081C132.362 37.9774 132.362 38.2495 132.36 38.5187C132.36 38.5953 132.36 38.6746 132.36 38.7512C132.354 38.9071 132.348 39.063 132.34 39.2217C132.337 39.3067 132.331 39.3918 132.326 39.4768C132.309 39.7291 132.289 39.9813 132.263 40.2336C132.255 40.33 132.246 40.4235 132.232 40.5171C132.215 40.6644 132.198 40.8118 132.175 40.9564C132.153 41.101 132.13 41.2625 132.105 41.4127C132.076 41.5913 132.042 41.7671 132.008 41.9428C131.985 42.0562 131.963 42.1667 131.94 42.2801C131.903 42.4502 131.864 42.6202 131.821 42.7903C131.784 42.949 131.745 43.1078 131.702 43.2637C131.668 43.3855 131.634 43.5074 131.597 43.6293C131.555 43.771 131.512 43.9099 131.467 44.0516C131.419 44.2047 131.368 44.3578 131.314 44.508C131.26 44.6611 131.206 44.8113 131.149 44.9643C131.11 45.0692 131.07 45.1713 131.027 45.2733C130.945 45.483 130.86 45.69 130.769 45.8969C130.733 45.9791 130.693 46.0613 130.653 46.1463C130.58 46.305 130.506 46.4666 130.427 46.6253C130.387 46.7047 130.347 46.7869 130.305 46.8663C130.197 47.0789 130.084 47.2858 129.967 47.4955C129.925 47.5692 129.882 47.6429 129.84 47.7138C129.735 47.8952 129.627 48.0738 129.517 48.2495C129.485 48.2977 129.457 48.3459 129.426 48.3941C129.29 48.6066 129.148 48.8136 129.001 49.0205C128.958 49.0828 128.913 49.1452 128.868 49.2075C128.717 49.4173 128.564 49.6214 128.403 49.8255C128.377 49.8566 128.352 49.8878 128.326 49.919C128.179 50.1032 128.026 50.2846 127.87 50.4632C127.827 50.5142 127.785 50.5624 127.742 50.6106C127.567 50.809 127.385 51.0018 127.201 51.1945C127.164 51.2342 127.124 51.271 127.085 51.3107C126.915 51.4836 126.739 51.6537 126.56 51.8209C126.529 51.8521 126.495 51.8833 126.464 51.9116C126.263 52.0959 126.056 52.2773 125.846 52.453C125.798 52.4927 125.75 52.5324 125.701 52.5721C125.483 52.7535 125.262 52.9292 125.035 53.0993C124.809 53.2665 124.573 53.4309 124.341 53.5896C124.29 53.6237 124.236 53.6577 124.185 53.6917C123.955 53.8447 123.726 53.9921 123.491 54.131C123.454 54.1537 123.414 54.1764 123.374 54.1991C123.165 54.3209 122.952 54.4428 122.737 54.5562C122.688 54.5817 122.64 54.6101 122.592 54.6356C122.357 54.7574 122.119 54.8765 121.881 54.987C121.821 55.0154 121.762 55.0409 121.702 55.0664C121.487 55.1656 121.268 55.2591 121.05 55.3498C121.013 55.364 120.976 55.381 120.937 55.398C120.699 55.4916 120.455 55.5794 120.214 55.6673C120.14 55.6928 120.069 55.7183 119.996 55.741C119.755 55.8232 119.517 55.8997 119.276 55.9706C119.219 55.9876 119.165 55.9989 119.108 56.0159C118.91 56.0726 118.709 56.1237 118.508 56.1747C118.423 56.1945 118.34 56.2144 118.258 56.2342C118.026 56.2881 117.793 56.3362 117.561 56.3788C117.473 56.3958 117.382 56.4099 117.292 56.4269C117.119 56.4553 116.946 56.4836 116.77 56.5063C116.679 56.5205 116.589 56.5347 116.498 56.546C116.274 56.5743 116.05 56.5999 115.826 56.6197C115.716 56.6282 115.605 56.6367 115.495 56.6452C115.336 56.6565 115.174 56.6679 115.015 56.6735C114.854 56.6821 114.692 56.6877 114.528 56.6906C114.383 56.6934 114.236 56.6962 114.089 56.6962C113.964 56.6962 113.836 56.6934 113.709 56.6906C113.547 56.6877 113.389 56.6821 113.227 56.6735C113.048 56.665 112.873 56.6537 112.697 56.6395C112.584 56.631 112.47 56.6197 112.357 56.6112C112.175 56.5942 111.994 56.5743 111.815 56.5517C111.662 56.5318 111.512 56.512 111.362 56.4893C111.214 56.4695 111.07 56.444 110.925 56.4213C110.832 56.4043 110.738 56.3873 110.645 56.3703C110.395 56.3221 110.149 56.2711 109.899 56.2115C109.817 56.1945 109.735 56.1747 109.65 56.1548C109.5 56.118 109.347 56.0783 109.196 56.0386C109.12 56.0188 109.046 55.9961 108.972 55.9734C108.712 55.8997 108.457 55.8204 108.199 55.7353C108.122 55.7098 108.046 55.6843 107.966 55.6588C107.816 55.6078 107.663 55.5539 107.513 55.4972C105.772 54.8481 104.159 53.9666 102.674 52.8527C101.189 51.7359 99.8936 50.432 98.7853 48.9439C98.5756 48.6633 98.3771 48.3799 98.1844 48.0936C104.446 55.5993 115.594 56.9825 123.516 51.0698Z" fill="#112A12"/>
</g>
</g>
</g>
<mask id="mask6_71_42" style="mask-type:luminance" maskUnits="userSpaceOnUse" x="86" y="10" width="54" height="55">
<path d="M139.851 10.4473H86.1543V64.1435H139.851V10.4473Z" fill="white"/>
</mask>
<g mask="url(#mask6_71_42)">
<mask id="mask7_71_42" style="mask-type:luminance" maskUnits="userSpaceOnUse" x="64" y="-13" width="97" height="98">
<path d="M119.46 -12.2393L64.0686 29.1015L105.409 84.49L160.798 43.152L119.46 -12.2393Z" fill="white"/>
</mask>
<g mask="url(#mask7_71_42)">
<mask id="mask8_71_42" style="mask-type:luminance" maskUnits="userSpaceOnUse" x="64" y="-13" width="97" height="98">
<path d="M119.46 -12.2388L64.0686 29.102L105.409 84.4904L160.798 43.1525L119.46 -12.2388Z" fill="white"/>
</mask>
<g mask="url(#mask8_71_42)">
<path d="M129.116 58.5685C140.916 49.7618 143.35 32.9959 134.544 21.196C125.737 9.39322 108.971 6.95841 97.1713 15.7651C85.3713 24.5718 82.9337 41.3377 91.7404 53.1376C100.547 64.9375 117.313 67.3752 129.116 58.5685ZM97.6985 16.4737C109.107 7.95614 125.32 10.3116 133.835 21.7232C142.353 33.1319 139.997 49.3451 128.586 57.8599C117.177 66.3775 100.964 64.022 92.449 52.6104C83.9314 41.2017 86.2869 24.9885 97.6985 16.4737Z" fill="#9A7C3C"/>
</g>
</g>
</g>
<path d="M107.497 55.7385C107.647 55.7923 107.801 55.8462 107.951 55.9C108.027 55.9255 108.107 55.951 108.186 55.9766C108.441 56.0588 108.696 56.1381 108.957 56.2118C109.031 56.2345 109.107 56.2543 109.181 56.277C109.331 56.3167 109.484 56.3564 109.637 56.3932C109.719 56.4131 109.802 56.4329 109.884 56.4527C110.133 56.5094 110.38 56.5605 110.629 56.6086C110.723 56.6256 110.816 56.6455 110.91 56.6597C111.055 56.6823 111.202 56.7107 111.349 56.7305C111.494 56.7504 111.647 56.7702 111.8 56.79C111.979 56.8127 112.16 56.8326 112.341 56.8496C112.455 56.8609 112.568 56.8694 112.681 56.8779C112.857 56.8921 113.033 56.9034 113.212 56.9119C113.373 56.9204 113.532 56.9261 113.693 56.9289C113.821 56.9318 113.949 56.9346 114.073 56.9346C114.221 56.9346 114.368 56.9318 114.515 56.9289C114.677 56.9261 114.839 56.9204 115 56.9148C115.162 56.9063 115.32 56.8978 115.479 56.8864C115.59 56.8779 115.703 56.8694 115.814 56.8581C116.035 56.8382 116.259 56.8156 116.483 56.7844C116.573 56.773 116.664 56.7589 116.755 56.7475C116.928 56.722 117.103 56.6937 117.276 56.6653C117.367 56.6512 117.458 56.6342 117.545 56.6171C117.778 56.5746 118.01 56.5264 118.243 56.4726C118.325 56.4556 118.407 56.4329 118.492 56.4131C118.693 56.3649 118.895 56.311 119.093 56.2543C119.15 56.2402 119.204 56.226 119.26 56.209C119.501 56.1381 119.742 56.0616 119.98 55.9822C120.054 55.9567 120.125 55.9312 120.199 55.9057C120.439 55.8207 120.683 55.7328 120.921 55.6364C120.961 55.6194 120.998 55.6052 121.035 55.5882C121.253 55.5004 121.471 55.404 121.687 55.3076C121.746 55.2793 121.806 55.2538 121.865 55.2254C122.103 55.1149 122.341 54.9958 122.577 54.8739C122.625 54.8484 122.673 54.8201 122.721 54.7946C122.937 54.6812 123.149 54.5621 123.362 54.4374C123.399 54.4148 123.438 54.3921 123.475 54.3694C123.71 54.2305 123.94 54.0831 124.17 53.9329C124.221 53.8961 124.274 53.862 124.326 53.828C124.561 53.6693 124.79 53.5077 125.02 53.3377C125.247 53.1676 125.471 52.989 125.686 52.8133C125.734 52.7708 125.782 52.7339 125.831 52.6914C126.04 52.5157 126.247 52.3371 126.449 52.1529C126.483 52.1217 126.514 52.0905 126.545 52.0593C126.723 51.8921 126.899 51.722 127.069 51.5491C127.109 51.5123 127.149 51.4726 127.185 51.4329C127.373 51.243 127.551 51.0474 127.727 50.849C127.769 50.8008 127.812 50.7526 127.854 50.7044C128.01 50.523 128.163 50.3416 128.311 50.1574C128.336 50.1262 128.362 50.095 128.387 50.0638C128.549 49.8626 128.702 49.6528 128.852 49.4459C128.898 49.3836 128.943 49.3212 128.985 49.2589C129.133 49.0519 129.274 48.845 129.411 48.6324C129.442 48.5842 129.47 48.5361 129.501 48.4879C129.612 48.3121 129.72 48.1336 129.824 47.955C129.867 47.8785 129.909 47.8076 129.952 47.7339C130.068 47.527 130.182 47.3172 130.289 47.1075C130.332 47.0253 130.371 46.9431 130.411 46.8637C130.49 46.705 130.567 46.5463 130.638 46.3847C130.678 46.3025 130.717 46.2175 130.754 46.1353C130.845 45.9283 130.93 45.7214 131.015 45.5145C131.055 45.4096 131.094 45.3076 131.134 45.2027C131.191 45.0525 131.247 44.8994 131.298 44.7464C131.352 44.5961 131.403 44.4431 131.451 44.29C131.497 44.1511 131.539 44.0094 131.582 43.8677C131.619 43.7458 131.653 43.6268 131.687 43.5049C131.729 43.3461 131.769 43.1874 131.806 43.0287C131.848 42.8586 131.888 42.6885 131.925 42.5185C131.947 42.4051 131.97 42.2946 131.993 42.1812C132.027 42.0054 132.061 41.8297 132.089 41.654C132.115 41.5009 132.14 41.3507 132.16 41.1948C132.183 41.0417 132.2 40.9028 132.217 40.7554C132.228 40.6619 132.239 40.5684 132.248 40.472C132.273 40.2197 132.296 39.9675 132.31 39.7152C132.316 39.6301 132.322 39.5451 132.327 39.4601C132.333 39.3042 132.339 39.1455 132.344 38.9896C132.344 38.913 132.344 38.8337 132.344 38.7571C132.35 38.4879 132.347 38.2157 132.341 37.9465C132.339 37.8643 132.336 37.7849 132.333 37.7027C132.248 35.7668 131.879 33.8847 131.227 32.0564C130.576 30.231 129.666 28.5417 128.504 26.9884C128.294 26.7106 128.078 26.4385 127.857 26.1749C133.274 34.3098 131.429 45.3926 123.504 51.3053C115.578 57.2209 104.433 55.8348 98.1718 48.3291C98.3646 48.6183 98.563 48.9017 98.7699 49.1795C99.8782 50.6704 101.176 51.9743 102.662 53.0911C104.144 54.205 105.757 55.0894 107.497 55.7385ZM118.798 35.4862C118.923 35.5627 119.059 35.6052 119.204 35.6165C119.348 35.625 119.49 35.6052 119.626 35.5513C119.759 35.4947 119.875 35.4153 119.975 35.3047C120.071 35.197 120.139 35.0723 120.179 34.9306C120.218 34.7917 120.224 34.65 120.199 34.5054C120.17 34.3637 120.113 34.2333 120.026 34.1143C119.938 33.9981 119.83 33.9073 119.7 33.8422C119.569 33.777 119.43 33.7429 119.286 33.7401C119.138 33.7401 119 33.7713 118.869 33.8337C118.736 33.896 118.625 33.9867 118.538 34.1001C118.447 34.2163 118.387 34.3439 118.356 34.4856C118.325 34.6301 118.331 34.7719 118.365 34.9136C118.43 35.163 118.574 35.3558 118.798 35.4862ZM122.259 40.2254C122.506 40.438 125.734 42.4249 126.967 42.476C127.288 42.4901 127.631 42.2549 127.962 41.9034C128.674 39.8711 128.977 37.7821 128.875 35.6335C128.657 35.1999 128.393 34.8767 128.081 34.7974C127.784 34.7237 127.33 34.7293 126.814 34.7804C126.684 34.7945 126.551 34.8087 126.417 34.8286C126.145 34.8654 125.865 34.9107 125.584 34.9646C124.328 35.197 123.095 35.5428 122.928 35.6165C122.843 35.6562 122.727 35.7979 122.599 35.9935C122.458 36.2259 122.33 36.464 122.219 36.7106C122.197 37.4788 122.089 38.2328 121.891 38.9754C121.973 39.5508 122.12 40.1007 122.262 40.2254H122.259ZM115.539 31.1466C115.646 31.2118 115.763 31.2514 115.884 31.2685C116.009 31.2883 116.131 31.2798 116.25 31.2486C116.372 31.2174 116.483 31.1664 116.582 31.0899C116.681 31.0162 116.763 30.9255 116.825 30.8178C116.857 30.7639 116.885 30.7044 116.905 30.6449C116.979 30.4351 116.976 30.2254 116.899 30.0156C116.823 29.8059 116.689 29.6443 116.497 29.5309C116.443 29.4997 116.383 29.4714 116.324 29.4516C116.097 29.3722 115.873 29.3807 115.652 29.4771C115.428 29.5706 115.269 29.7265 115.167 29.9448C115.065 30.1658 115.051 30.3898 115.122 30.6194C115.196 30.849 115.335 31.0247 115.541 31.1466H115.539ZM112.679 26.6284C113.447 26.6511 114.201 26.7616 114.943 26.9572C115.522 26.8779 116.072 26.7305 116.193 26.5887C116.406 26.3421 118.393 23.1137 118.444 21.8835C118.452 21.6823 118.365 21.4725 118.212 21.2628C118.18 21.2231 118.149 21.1777 118.112 21.1381C118.036 21.0502 117.956 20.9651 117.871 20.8858C117.37 20.71 116.86 20.5598 116.344 20.4323C116.086 20.3699 115.825 20.3132 115.567 20.265C114.257 20.0099 112.934 19.9136 111.602 19.9759C111.548 20.0043 111.497 20.0298 111.446 20.061C111.142 20.231 110.913 20.4294 110.808 20.6534C110.791 20.693 110.777 20.7299 110.768 20.7696C110.72 20.9566 110.706 21.2032 110.714 21.4867C110.731 21.943 110.782 22.3966 110.859 22.8472C110.87 22.9153 110.884 22.9861 110.896 23.057C110.981 23.5445 111.086 24.0377 111.191 24.4771C111.236 24.6641 111.278 24.8399 111.318 25.0043C111.389 25.2735 111.451 25.5003 111.5 25.6647C111.519 25.7299 111.536 25.7866 111.551 25.8291C111.568 25.8716 111.579 25.9028 111.587 25.9226C111.599 25.9481 111.616 25.9708 111.633 25.9935C111.786 26.1636 112.214 26.4187 112.679 26.6284ZM121.174 25.3954C121.049 25.557 120.927 25.7299 120.802 25.9028L120.683 26.0785C120.601 26.1947 120.522 26.3138 120.445 26.43C120.096 26.9601 119.788 27.4731 119.569 27.8501C119.524 27.9351 119.479 28.0116 119.442 28.0797C119.422 28.1137 119.402 28.1477 119.388 28.176C119.323 28.2951 119.28 28.3801 119.266 28.4198C119.24 28.485 119.246 28.604 119.269 28.7543C119.277 28.8053 119.289 28.8592 119.303 28.9158C119.362 29.1794 119.442 29.4374 119.538 29.6925C119.668 29.8285 119.796 29.9703 119.918 30.1177C120.043 30.2622 120.162 30.4124 120.278 30.5683C120.337 30.6449 120.388 30.7271 120.445 30.8064C120.61 31.0417 120.765 31.2826 120.91 31.5292C121.259 31.79 121.621 32.0168 121.86 32.1075C121.922 32.1358 121.984 32.15 122.052 32.15C122.143 32.1386 122.231 32.1216 122.319 32.1018C122.353 32.0961 122.39 32.0876 122.426 32.0791C122.503 32.0621 122.591 32.0423 122.684 32.0196C123.107 31.9204 123.688 31.7702 124.294 31.5859C124.428 31.5434 124.564 31.5009 124.7 31.4584L124.901 31.3903C125.102 31.3223 125.303 31.2543 125.493 31.1806C125.559 31.1579 125.621 31.1324 125.683 31.1069C126.242 30.8858 126.715 30.6477 126.973 30.4124C127.035 30.3558 127.083 30.2877 127.123 30.214C127.143 30.1743 127.16 30.1318 127.177 30.0893C127.208 29.9958 127.234 29.8994 127.248 29.803C127.271 29.633 127.279 29.4629 127.271 29.29C126.928 28.5757 126.536 27.8898 126.094 27.2322C125.944 27.0111 125.788 26.79 125.627 26.5746C125.465 26.3591 125.301 26.1466 125.13 25.9396C124.788 25.5286 124.433 25.1375 124.059 24.7662C123.875 24.5819 123.685 24.4005 123.492 24.2276C123.382 24.1879 123.268 24.1568 123.155 24.1341C122.937 24.0859 122.735 24.0746 122.565 24.1057C122.48 24.1227 122.404 24.1511 122.33 24.1936C122.032 24.3722 121.67 24.7605 121.298 25.231C121.256 25.2849 121.216 25.3416 121.174 25.3954ZM115.899 33.8365C115.459 33.2441 114.907 32.7962 114.238 32.4873C114.11 32.4278 113.98 32.3767 113.846 32.3285C113.679 32.2719 113.509 32.2237 113.336 32.184C113.163 32.1471 112.988 32.1188 112.809 32.1046C112.633 32.0876 112.455 32.0819 112.279 32.0876C112.1 32.0933 111.925 32.1103 111.749 32.1358C111.573 32.1641 111.4 32.201 111.23 32.2492C111.057 32.2974 110.89 32.3541 110.726 32.4249C110.564 32.4929 110.403 32.5723 110.25 32.6602C110.096 32.748 109.946 32.8444 109.805 32.9493C109.663 33.057 109.527 33.1704 109.399 33.2951C109.272 33.417 109.15 33.5474 109.036 33.6834C108.926 33.8223 108.821 33.9669 108.727 34.1171C108.631 34.2673 108.546 34.4232 108.469 34.582C108.396 34.7435 108.331 34.9079 108.274 35.0751C108.217 35.2452 108.172 35.4153 108.138 35.591C108.104 35.7639 108.078 35.9397 108.067 36.1182C108.053 36.294 108.05 36.4725 108.058 36.6483C108.067 36.79 108.078 36.9289 108.098 37.0678C108.203 37.7962 108.478 38.4567 108.92 39.0462C109.09 39.2787 109.28 39.4913 109.493 39.684C109.705 39.8796 109.935 40.0497 110.179 40.1999C110.425 40.3473 110.683 40.472 110.955 40.5684C111.225 40.6676 111.502 40.7384 111.789 40.7809C112.072 40.8235 112.358 40.8376 112.645 40.8235C112.934 40.8093 113.214 40.7668 113.495 40.6959C113.773 40.625 114.042 40.5287 114.303 40.4068C114.564 40.2821 114.807 40.1347 115.037 39.9618C115.269 39.7917 115.479 39.599 115.672 39.3836C115.865 39.171 116.035 38.9385 116.179 38.6919C116.327 38.4453 116.449 38.1846 116.542 37.9125C116.638 37.6432 116.706 37.3654 116.746 37.0791C116.786 36.7957 116.797 36.5094 116.78 36.2203C116.766 35.934 116.721 35.6505 116.647 35.3728C116.576 35.095 116.477 34.8257 116.349 34.5678C116.225 34.3098 116.074 34.0661 115.899 33.8365ZM105.831 33.6381C105.995 33.7344 106.168 33.777 106.358 33.7685C106.545 33.7571 106.715 33.6976 106.868 33.5871C106.97 33.5105 107.052 33.417 107.117 33.3093C107.183 33.1987 107.222 33.0825 107.239 32.9578C107.248 32.8954 107.251 32.8359 107.245 32.7764C107.234 32.5695 107.163 32.3881 107.03 32.2293C106.896 32.0706 106.732 31.9657 106.531 31.9175C106.329 31.8694 106.134 31.8864 105.944 31.9657C105.754 32.0451 105.607 32.1755 105.502 32.3541C105.403 32.5185 105.36 32.697 105.371 32.8869C105.391 33.2186 105.544 33.4708 105.831 33.6381ZM101.205 27.5525C101.57 27.8387 101.99 28.1335 102.401 28.4056C102.517 28.4822 102.633 28.5587 102.749 28.6296C103.379 29.0321 103.948 29.358 104.229 29.5054C104.306 29.5451 104.359 29.5706 104.388 29.5819C104.564 29.65 105.116 29.5168 105.661 29.3127C105.799 29.1823 105.941 29.0547 106.086 28.93C106.233 28.8081 106.383 28.6862 106.539 28.57C106.695 28.4538 106.851 28.3461 107.013 28.2412C107.171 28.1364 107.333 28.0343 107.497 27.9408C107.849 27.4759 108.132 26.9856 108.121 26.7985C108.118 26.7673 108.107 26.7078 108.09 26.6228C108.03 26.3138 107.88 25.6732 107.673 24.9532C107.636 24.8229 107.596 24.6896 107.557 24.5564C107.412 24.0859 107.251 23.6012 107.078 23.1675C107.03 23.0428 106.979 22.9238 106.928 22.8076C106.902 22.7509 106.876 22.697 106.851 22.6432C106.8 22.5326 106.749 22.4306 106.698 22.337C106.672 22.2917 106.644 22.2435 106.619 22.201C106.57 22.1216 106.519 22.0451 106.463 21.9714C106.437 21.9374 106.412 21.9062 106.383 21.8778C106.219 21.6993 105.947 21.6114 105.615 21.5859C105.496 21.5774 105.38 21.5746 105.264 21.5802C104.793 21.807 104.331 22.0564 103.878 22.3285C103.424 22.6006 102.979 22.9011 102.548 23.2242C102.115 23.5474 101.704 23.8875 101.31 24.2446C100.918 24.6018 100.55 24.9731 100.198 25.3586C100.125 25.5712 100.079 25.7866 100.062 26.0105C100.06 26.0587 100.06 26.1069 100.062 26.1522C100.068 26.2826 100.102 26.4045 100.164 26.5207C100.187 26.5519 100.207 26.5859 100.232 26.6199C100.286 26.6964 100.346 26.7673 100.408 26.8382C100.442 26.875 100.479 26.9119 100.516 26.9487C100.592 27.0252 100.678 27.1046 100.765 27.184C100.808 27.2265 100.856 27.2662 100.904 27.3059C100.995 27.3881 101.097 27.4703 101.202 27.5525H101.205ZM110.601 28.6352C110.539 28.6409 110.476 28.6494 110.414 28.6664C110.247 28.7089 110.099 28.7911 109.977 28.9158C109.856 29.0377 109.776 29.1851 109.734 29.3524C109.694 29.5224 109.7 29.6897 109.751 29.8541C109.802 30.0213 109.895 30.1602 110.023 30.2764C110.113 30.3558 110.218 30.4181 110.332 30.4578C110.513 30.523 110.695 30.5315 110.879 30.4833C111.114 30.4238 111.298 30.2934 111.429 30.0921C111.562 29.8909 111.613 29.6726 111.576 29.4346C111.539 29.1965 111.429 29.0009 111.242 28.8478C111.055 28.6948 110.842 28.6239 110.601 28.6381V28.6352ZM120.431 43.298C120.255 43.2299 119.705 43.3632 119.158 43.5672C118.603 44.1001 117.99 44.5565 117.322 44.9391C116.97 45.404 116.687 45.8943 116.701 46.0814C116.723 46.4074 117.602 50.095 118.438 51.0049C118.657 51.243 119.07 51.3195 119.558 51.3025C121.494 50.3728 123.183 49.1143 124.623 47.5213C124.779 47.0593 124.822 46.6398 124.654 46.362C124.019 45.3019 120.737 43.4142 120.431 43.298ZM119.269 39.4941C119.184 39.3807 119.079 39.29 118.957 39.2248C118.832 39.1568 118.699 39.1199 118.56 39.1143C118.418 39.1058 118.285 39.1313 118.155 39.1851C118.024 39.2362 117.911 39.3155 117.818 39.4204C117.733 39.5168 117.667 39.6245 117.625 39.7464C117.599 39.8229 117.582 39.8994 117.577 39.9816C117.571 40.061 117.574 40.1404 117.591 40.2226C117.605 40.3019 117.628 40.3756 117.664 40.4493C117.699 40.523 117.741 40.591 117.792 40.6534C117.846 40.7158 117.903 40.7696 117.971 40.815C118.036 40.8631 118.107 40.9 118.18 40.9283C118.257 40.9567 118.336 40.9765 118.416 40.985C118.495 40.9935 118.574 40.9907 118.657 40.9794C118.736 40.9652 118.812 40.9425 118.886 40.9113C118.96 40.8802 119.031 40.8376 119.093 40.7894C119.155 40.7384 119.212 40.6817 119.26 40.6165C119.311 40.5514 119.351 40.4833 119.379 40.4068C119.411 40.3331 119.433 40.2566 119.442 40.1772C119.453 40.095 119.453 40.0156 119.445 39.9363C119.433 39.8541 119.413 39.7775 119.385 39.7038C119.354 39.6273 119.314 39.5565 119.269 39.4941ZM114.127 42.3683C114.062 42.3711 114 42.3824 113.937 42.3966C113.818 42.4278 113.708 42.4816 113.608 42.5553C113.509 42.629 113.427 42.7226 113.365 42.8274C113.299 42.9351 113.26 43.0514 113.243 43.1732C113.226 43.298 113.231 43.4198 113.263 43.5389C113.294 43.6608 113.345 43.7713 113.421 43.8705C113.495 43.9697 113.586 44.0519 113.693 44.1143C113.801 44.1766 113.917 44.2192 114.039 44.2362C114.161 44.2532 114.283 44.2475 114.405 44.2163C114.527 44.1851 114.634 44.1313 114.734 44.0576C114.836 43.9811 114.915 43.8904 114.98 43.7855C115.043 43.6778 115.082 43.5616 115.099 43.4397C115.119 43.315 115.111 43.1931 115.079 43.074C115.048 42.9493 114.994 42.8388 114.918 42.7367C114.719 42.476 114.456 42.3541 114.127 42.3683ZM105.309 37.2945C105.19 37.3257 105.079 37.3796 104.98 37.4533C104.878 37.527 104.799 37.6177 104.734 37.7254C104.671 37.8331 104.632 37.9493 104.615 38.0712C104.595 38.1959 104.603 38.3178 104.634 38.4368C104.666 38.5587 104.717 38.6664 104.793 38.7685C104.867 38.8677 104.958 38.947 105.065 39.0122C105.173 39.0746 105.286 39.1143 105.411 39.1341C105.533 39.1511 105.655 39.1426 105.777 39.1143C105.896 39.0831 106.006 39.0292 106.106 38.9555C106.205 38.879 106.287 38.7883 106.349 38.6806C106.414 38.5757 106.454 38.4595 106.471 38.3348C106.488 38.2129 106.482 38.091 106.451 37.9691C106.42 37.8473 106.366 37.7367 106.29 37.6347C106.176 37.4845 106.029 37.3796 105.85 37.3172C105.672 37.2549 105.493 37.2464 105.309 37.2945ZM102.56 32.6573C102.551 32.6517 102.54 32.6432 102.528 32.6347C102.486 32.6035 102.421 32.5581 102.336 32.5014C102.137 32.3711 101.823 32.1783 101.448 31.9601C101.023 31.7135 100.516 31.4329 100.009 31.1806C99.9434 31.1494 99.881 31.1182 99.8187 31.087C99.4077 30.883 98.9882 30.7072 98.5573 30.5598C98.5035 30.54 98.4496 30.5258 98.3986 30.5088C98.22 30.455 98.0386 30.4209 97.8515 30.4068C97.5312 30.3926 97.1883 30.6279 96.8538 30.9793C96.1452 33.0117 95.8419 35.1035 95.9439 37.252C96.1622 37.6829 96.4258 38.006 96.7376 38.0854C97.0352 38.1591 97.4887 38.1562 98.0046 38.1024C98.3929 38.0627 98.8153 37.9975 99.2319 37.921L99.4417 37.8813C99.5806 37.8529 99.7194 37.8246 99.8555 37.7962C100.193 37.7225 100.519 37.646 100.802 37.5752C101.375 37.4334 101.797 37.3087 101.891 37.2662C102.061 37.1897 102.358 36.7021 102.599 36.1721C102.602 35.9822 102.613 35.7923 102.63 35.5995C102.65 35.4096 102.67 35.2197 102.698 35.0298C102.752 34.6528 102.829 34.2787 102.928 33.9073C102.86 33.4028 102.735 32.9181 102.611 32.7225C102.596 32.6999 102.579 32.6772 102.56 32.6573ZM105.553 44.4629C105.621 44.2872 105.488 43.7373 105.284 43.1902C105.088 42.9833 104.904 42.7651 104.722 42.5412C104.663 42.4646 104.6 42.3909 104.544 42.3144C104.428 42.1585 104.317 41.9998 104.212 41.841C104.107 41.6795 104.008 41.5179 103.912 41.3535C103.447 41.002 102.956 40.7186 102.769 40.7328C102.443 40.7583 98.7557 41.6341 97.8487 42.4703C97.6078 42.6885 97.5312 43.1024 97.5482 43.5899C98.4779 45.5259 99.7365 47.2152 101.329 48.6551C101.386 48.6749 101.443 48.692 101.499 48.709C101.607 48.7373 101.715 48.76 101.825 48.777C102.086 48.8138 102.316 48.7912 102.489 48.6863C103.546 48.0514 105.437 44.769 105.553 44.4629ZM106.95 51.997C108.98 52.7056 111.072 53.0089 113.22 52.9068C113.654 52.6886 113.977 52.4278 114.053 52.116C114.354 50.9199 113.367 47.2605 113.234 46.9629C113.158 46.7929 112.673 46.4952 112.14 46.2543C111.95 46.2486 111.76 46.2373 111.568 46.2203C110.995 46.1721 110.431 46.0729 109.875 45.9255C109.3 46.002 108.75 46.1523 108.628 46.294C108.6 46.3252 108.546 46.4017 108.472 46.5151C108.379 46.6596 108.251 46.8609 108.109 47.099C108.053 47.1954 107.99 47.2946 107.928 47.4023C107.276 48.5247 106.409 50.1914 106.375 50.9992C106.361 51.3195 106.596 51.6625 106.947 51.997H106.95ZM109.28 41.7362C109.172 41.671 109.056 41.6313 108.934 41.6143C108.81 41.5973 108.688 41.6029 108.569 41.6341C108.447 41.6653 108.336 41.7192 108.237 41.7929C108.138 41.8665 108.056 41.9573 107.993 42.065C107.962 42.1217 107.934 42.1783 107.914 42.2379C107.806 42.5497 107.852 42.8388 108.047 43.1024C108.084 43.1506 108.124 43.1959 108.169 43.2384C108.268 43.3291 108.382 43.3943 108.506 43.434C108.634 43.4765 108.761 43.4907 108.895 43.4765C109.025 43.4652 109.15 43.4255 109.266 43.3603C109.379 43.2923 109.479 43.2073 109.555 43.0995C109.634 42.9947 109.688 42.8756 109.717 42.7452C109.745 42.6177 109.748 42.4873 109.719 42.3569C109.694 42.2265 109.643 42.1075 109.566 41.9998C109.49 41.8921 109.394 41.8042 109.28 41.7362ZM94.5607 12.5269C108.024 2.47588 127.251 5.28201 137.911 18.6721C137.718 18.3943 137.523 18.1193 137.322 17.8501C127.069 4.11421 107.554 1.2769 93.8181 11.5292C80.0822 21.7815 77.2477 41.2968 87.4972 55.0327C87.7013 55.3048 87.9082 55.5712 88.118 55.8348C78.3163 41.8042 81.0941 22.5751 94.5607 12.5269Z" fill="#9A7C3C"/>
<path d="M211.85 48.0306C212.268 47.2985 213.024 46.8031 213.867 46.8031H226.524C228 46.8031 229.043 48.2479 228.469 49.6079C226.932 53.2523 224.833 56.5549 222.171 59.5177C218.842 63.2143 214.897 66.1185 210.342 68.2302C205.782 70.3464 200.855 71.4 195.555 71.4C190.655 71.4 186.046 70.4836 181.725 68.6552C177.404 66.8135 173.597 64.2458 170.303 60.9521C167.01 57.6495 164.442 53.8333 162.6 49.5125C160.767 45.1917 159.855 40.5875 159.855 35.7C159.855 30.8036 160.767 26.1906 162.6 21.8698C164.442 17.549 167.01 13.7417 170.303 10.4479C173.597 7.15417 177.404 4.59531 181.725 2.7625C186.046 0.920833 190.655 0 195.555 0C200.855 0 205.764 1.05807 210.289 3.16979C214.809 5.27266 218.736 8.14141 222.065 11.776C224.723 14.6819 226.82 17.9433 228.357 21.5605C228.935 22.92 227.892 24.3667 226.415 24.3667H213.77C212.922 24.3667 212.164 23.8652 211.747 23.1266C210.312 20.583 208.243 18.5349 205.543 16.9823C202.413 15.176 199.084 14.2729 195.555 14.2729C191.81 14.2729 188.406 15.2424 185.338 17.1771C182.279 19.1161 179.848 21.7016 178.042 24.9333C176.245 28.1695 175.35 31.7599 175.35 35.7C175.35 39.6445 176.245 43.2349 178.042 46.4667C179.848 49.6896 182.279 52.2706 185.338 54.2052C188.406 56.1443 191.81 57.1094 195.555 57.1094C199.155 57.1094 202.519 56.162 205.649 54.2583C208.347 52.6188 210.415 50.5439 211.85 48.0306Z" fill="#9A7C3C"/>
<path d="M273.378 47.937C273.378 45.9669 272.9 44.1297 271.944 42.4297C270.996 40.7297 269.721 39.3573 268.119 38.3036C266.525 37.2411 264.705 36.7099 262.665 36.7099C260.619 36.7099 258.795 37.2411 257.193 38.3036C255.599 39.3573 254.324 40.7297 253.368 42.4297C252.42 44.1297 251.951 45.9669 251.951 47.937C251.951 49.9115 252.42 51.7443 253.368 53.4443C254.324 55.1443 255.599 56.5211 257.193 57.5703C258.795 58.624 260.619 59.1464 262.665 59.1464C264.705 59.1464 266.525 58.624 268.119 57.5703C269.721 56.5211 270.996 55.1443 271.944 53.4443C272.9 51.7443 273.378 49.9115 273.378 47.937ZM286.511 25.5005C287.708 25.5005 288.678 26.4709 288.678 27.668V68.2059C288.678 69.403 287.708 70.3734 286.511 70.3734H274.611C273.93 70.3734 273.378 69.8215 273.378 69.1407C273.378 67.9128 271.521 67.2583 270.53 67.9841C269.425 68.7934 268.144 69.4421 266.684 69.9307C263.731 70.9091 260.827 71.4005 257.972 71.4005C253.757 71.4005 249.95 70.3159 246.55 68.1422C243.15 65.9596 240.48 63.0865 238.546 59.5182C236.607 55.9411 235.642 52.0807 235.642 47.937C235.642 43.7844 236.607 39.924 238.546 36.3557C240.48 32.7919 243.15 29.9055 246.55 27.6964C249.95 25.4784 253.757 24.3672 257.972 24.3672C260.827 24.3672 263.612 24.8453 266.33 25.8016C267.854 26.336 269.259 27.1027 270.547 28.1017C271.598 28.9169 273.378 28.2412 273.378 26.9111C273.378 26.1321 274.01 25.5005 274.789 25.5005H286.511Z" fill="#9A7C3C"/>
<path d="M326.317 36.7104C324.413 36.7104 322.695 37.2726 321.163 38.3927C319.627 39.5172 318.419 40.925 317.533 42.625C316.657 44.325 316.223 46.0958 316.223 47.9375V68.2064C316.223 69.4035 315.252 70.3739 314.055 70.3739H303.09C301.893 70.3739 300.923 69.4035 300.923 68.2064V27.5623C300.923 26.3652 301.893 25.3948 303.09 25.3948H314.927C315.643 25.3948 316.223 25.9749 316.223 26.6905C316.223 27.9666 318.07 28.6177 319.039 27.7877C319.617 27.293 320.242 26.82 320.916 26.3687C322.886 25.0362 325.263 24.3677 328.052 24.3677C328.725 24.3677 329.504 24.4562 330.39 24.6333C330.773 24.7062 331.131 24.7949 331.464 24.8997C332.215 25.1367 332.638 25.8838 332.638 26.6719V39.1173C332.638 39.1963 332.574 39.2604 332.495 39.2604C332.452 39.2604 332.41 39.2402 332.383 39.2061C331.647 38.292 330.745 37.6504 329.681 37.2771C328.592 36.9007 327.472 36.7104 326.317 36.7104Z" fill="#9A7C3C"/>
</svg>
