<svg width="256" height="130" viewBox="0 0 256 130" fill="none" xmlns="http://www.w3.org/2000/svg">
<mask id="mask0_66_75" style="mask-type:luminance" maskUnits="userSpaceOnUse" x="134" y="6" width="106" height="96">
<path d="M239.333 6.6665H134V101.333H239.333V6.6665Z" fill="white"/>
</mask>
<g mask="url(#mask0_66_75)">
<mask id="mask1_66_75" style="mask-type:luminance" maskUnits="userSpaceOnUse" x="102" y="-25" width="179" height="179">
<path d="M204.536 -24.3545L102.755 51.6091L178.718 153.385L280.494 77.4268L204.536 -24.3545Z" fill="white"/>
</mask>
<g mask="url(#mask1_66_75)">
<mask id="mask2_66_75" style="mask-type:luminance" maskUnits="userSpaceOnUse" x="102" y="-25" width="179" height="179">
<path d="M204.536 -24.3545L102.755 51.6091L178.718 153.385L280.494 77.4268L204.536 -24.3545Z" fill="white"/>
</mask>
<g mask="url(#mask2_66_75)">
<path d="M157.442 18.8851C182.682 0.051754 218.541 5.25488 237.38 30.4997C237.749 30.9945 238.109 31.4997 238.463 32.0101C218.874 7.40592 183.546 2.24967 158.807 20.7184C134.067 39.182 128.958 74.5101 146.968 100.297C146.583 99.8122 146.202 99.3226 145.827 98.8226C126.994 73.583 132.202 37.7236 157.442 18.8851Z" fill="#112A12"/>
</g>
</g>
</g>
<mask id="mask3_66_75" style="mask-type:luminance" maskUnits="userSpaceOnUse" x="164" y="45" width="65" height="58">
<path d="M228.667 45.333H164.667V102.666H228.667V45.333Z" fill="white"/>
</mask>
<g mask="url(#mask3_66_75)">
<mask id="mask4_66_75" style="mask-type:luminance" maskUnits="userSpaceOnUse" x="102" y="-25" width="179" height="179">
<path d="M204.537 -24.3545L102.756 51.6091L178.719 153.385L280.495 77.4268L204.537 -24.3545Z" fill="white"/>
</mask>
<g mask="url(#mask4_66_75)">
<mask id="mask5_66_75" style="mask-type:luminance" maskUnits="userSpaceOnUse" x="102" y="-25" width="179" height="179">
<path d="M204.537 -24.3545L102.756 51.6091L178.719 153.385L280.495 77.4268L204.537 -24.3545Z" fill="white"/>
</mask>
<g mask="url(#mask5_66_75)">
<path d="M211.99 91.9787C226.553 81.1089 229.943 60.7495 219.995 45.7964C220.396 46.2808 220.797 46.7808 221.178 47.2964C223.313 50.1453 224.985 53.2495 226.183 56.6089C227.381 59.9631 228.058 63.4214 228.214 66.9839C228.219 67.1297 228.224 67.2808 228.23 67.4266C228.245 67.9214 228.245 68.4214 228.24 68.9162C228.24 69.0568 228.24 69.2026 228.24 69.3433C228.23 69.6297 228.219 69.9162 228.204 70.2078C228.198 70.3641 228.188 70.5203 228.178 70.6766C228.146 71.1401 228.11 71.6037 228.063 72.0672C228.047 72.2443 228.032 72.4162 228.006 72.5881C227.974 72.8589 227.943 73.1297 227.902 73.3953C227.86 73.661 227.818 73.9578 227.771 74.2339C227.719 74.562 227.657 74.8849 227.594 75.2078C227.553 75.4162 227.511 75.6193 227.469 75.8276C227.402 76.1401 227.329 76.4526 227.25 76.7651C227.183 77.0568 227.11 77.3485 227.032 77.6349C226.969 77.8589 226.907 78.0828 226.839 78.3068C226.761 78.5672 226.683 78.8224 226.599 79.0828C226.511 79.3641 226.417 79.6453 226.318 79.9214C226.219 80.2026 226.12 80.4787 226.016 80.7599C225.943 80.9526 225.87 81.1401 225.792 81.3276C225.641 81.7131 225.485 82.0933 225.318 82.4735C225.25 82.6245 225.178 82.7756 225.105 82.9318C224.969 83.2235 224.834 83.5203 224.688 83.812C224.615 83.9578 224.542 84.1089 224.464 84.2547C224.266 84.6453 224.058 85.0256 223.844 85.411C223.766 85.5464 223.688 85.6818 223.61 85.812C223.417 86.1453 223.219 86.4735 223.016 86.7964C222.959 86.8849 222.907 86.9735 222.849 87.062C222.599 87.4526 222.339 87.8328 222.068 88.2131C221.99 88.3276 221.907 88.4422 221.823 88.5568C221.547 88.9422 221.266 89.3172 220.969 89.6922C220.922 89.7495 220.875 89.8068 220.829 89.8641C220.558 90.2026 220.277 90.536 219.99 90.8641C219.912 90.9578 219.834 91.0464 219.756 91.1349C219.433 91.4995 219.099 91.8537 218.761 92.2078C218.693 92.2808 218.62 92.3485 218.547 92.4214C218.235 92.7391 217.912 93.0516 217.584 93.3589C217.527 93.4162 217.464 93.4735 217.407 93.5256C217.037 93.8641 216.657 94.1974 216.271 94.5203C216.183 94.5933 216.094 94.6662 216.006 94.7391C215.605 95.0724 215.198 95.3953 214.782 95.7078C214.365 96.0151 213.933 96.3172 213.506 96.6089C213.412 96.6714 213.313 96.7339 213.219 96.7964C212.797 97.0776 212.375 97.3485 211.943 97.6037C211.875 97.6453 211.803 97.687 211.73 97.7287C211.344 97.9526 210.954 98.1766 210.558 98.3849C210.469 98.4318 210.381 98.4839 210.292 98.5308C209.86 98.7547 209.422 98.9735 208.985 99.1766C208.875 99.2287 208.766 99.2756 208.657 99.3224C208.261 99.5047 207.86 99.6766 207.459 99.8433C207.391 99.8693 207.323 99.9006 207.25 99.9318C206.813 100.104 206.365 100.265 205.922 100.427C205.787 100.473 205.657 100.52 205.521 100.562C205.079 100.713 204.641 100.854 204.198 100.984C204.094 101.015 203.995 101.036 203.891 101.067C203.527 101.171 203.157 101.265 202.787 101.359C202.631 101.395 202.48 101.432 202.329 101.468C201.902 101.567 201.474 101.656 201.047 101.734C200.886 101.765 200.719 101.791 200.553 101.822C200.235 101.875 199.917 101.927 199.594 101.968C199.428 101.994 199.261 102.02 199.094 102.041C198.683 102.093 198.271 102.14 197.86 102.177C197.657 102.192 197.454 102.208 197.25 102.223C196.959 102.244 196.662 102.265 196.37 102.276C196.073 102.291 195.777 102.302 195.474 102.307C195.209 102.312 194.938 102.317 194.667 102.317C194.438 102.317 194.204 102.312 193.969 102.307C193.672 102.302 193.381 102.291 193.084 102.276C192.756 102.26 192.433 102.239 192.11 102.213C191.902 102.197 191.693 102.177 191.485 102.161C191.152 102.13 190.818 102.093 190.49 102.052C190.209 102.015 189.933 101.979 189.657 101.937C189.386 101.901 189.12 101.854 188.855 101.812C188.683 101.781 188.511 101.75 188.339 101.718C187.881 101.63 187.428 101.536 186.969 101.427C186.818 101.395 186.667 101.359 186.511 101.322C186.235 101.255 185.954 101.182 185.678 101.109C185.537 101.072 185.402 101.031 185.266 100.989C184.787 100.854 184.318 100.708 183.844 100.552C183.704 100.505 183.563 100.458 183.417 100.411C183.141 100.317 182.86 100.218 182.584 100.114C179.386 98.9214 176.422 97.3016 173.693 95.2547C170.964 93.2026 168.584 90.8068 166.547 88.0724C166.162 87.5568 165.797 87.036 165.443 86.5099C176.948 100.302 197.433 102.843 211.99 91.9787Z" fill="#112A12"/>
</g>
</g>
</g>
<mask id="mask6_66_75" style="mask-type:luminance" maskUnits="userSpaceOnUse" x="143" y="17" width="99" height="99">
<path d="M242 17.333H143.333V116H242V17.333Z" fill="white"/>
</mask>
<g mask="url(#mask6_66_75)">
<mask id="mask7_66_75" style="mask-type:luminance" maskUnits="userSpaceOnUse" x="102" y="-25" width="179" height="179">
<path d="M204.537 -24.3545L102.756 51.6091L178.719 153.385L280.495 77.4268L204.537 -24.3545Z" fill="white"/>
</mask>
<g mask="url(#mask7_66_75)">
<mask id="mask8_66_75" style="mask-type:luminance" maskUnits="userSpaceOnUse" x="102" y="-25" width="179" height="179">
<path d="M204.537 -24.3545L102.756 51.6091L178.719 153.385L280.495 77.4268L204.537 -24.3545Z" fill="white"/>
</mask>
<g mask="url(#mask8_66_75)">
<path d="M222.276 105.755C243.959 89.5724 248.433 58.7652 232.25 37.0829C216.068 15.3954 185.261 10.9214 163.579 27.1037C141.896 43.286 137.417 74.0933 153.599 95.7756C169.782 117.458 200.589 121.937 222.276 105.755ZM164.547 28.4058C185.511 12.7547 215.303 17.0829 230.948 38.0516C246.599 59.0152 242.271 88.8068 221.303 104.453C200.339 120.104 170.547 115.776 154.901 94.8068C139.25 73.8433 143.579 44.0516 164.547 28.4058Z" fill="#9A7C3C"/>
</g>
</g>
</g>
<path d="M62.5518 29.7703C56.1116 29.7703 50.2067 31.487 44.8428 34.9088C39.4905 38.319 35.197 42.8583 31.974 48.5267C28.7627 54.1951 27.157 60.451 27.157 67.283C27.157 74.0113 28.7627 80.2443 31.974 85.9702C35.197 91.6847 39.4905 96.2586 44.8428 99.6803C50.2067 103.091 56.1116 104.796 62.5518 104.796C66.473 104.796 70.6093 104.237 74.9552 103.114C79.3126 101.996 83.3675 99.8416 87.1258 96.6618C90.0146 94.2138 92.4276 90.9259 94.3621 86.7928C95.2407 84.9157 93.7915 82.8595 91.719 82.8595H68.0651C66.4082 82.8595 65.0651 81.5164 65.0651 79.8595V65.8589C65.0651 64.2021 66.4082 62.8589 68.0651 62.8589H121.918C123.574 62.8589 124.918 64.2021 124.918 65.8589V66.9374C124.918 75.4342 123.312 83.4298 120.1 90.9243C116.889 98.4073 112.421 105.015 106.696 110.741C100.972 116.455 94.3513 120.914 86.8465 124.105C79.3533 127.285 71.2551 128.875 62.5518 128.875C53.9707 128.875 45.8958 127.25 38.327 124.013C30.7698 120.758 24.1318 116.305 18.4072 110.648C12.6826 104.98 8.17968 98.4073 4.91013 90.9243C1.63477 83.4298 0 75.4342 0 66.9374C0 58.4463 1.63477 50.4507 4.91013 42.9505C8.17968 35.456 12.6826 28.8832 18.4072 23.2264C24.1318 17.558 30.7698 13.1051 38.327 9.8619C45.8958 6.62447 53.9707 5 62.5518 5C71.4878 5 79.9409 6.79729 87.917 10.3919C95.9047 13.9865 102.88 18.9405 108.837 25.2541C113.854 30.5704 117.732 36.618 120.471 43.3932C121.236 45.286 119.792 47.2824 117.751 47.2824H94.3159C93.1518 47.2824 92.103 46.6033 91.5552 45.5761C88.6406 40.1104 84.6896 36.1735 79.7024 33.7566C74.2221 31.101 68.5092 29.7703 62.5518 29.7703Z" fill="#9A7C3C"/>
<path d="M182.552 100.555C182.828 100.654 183.109 100.753 183.385 100.852C183.526 100.899 183.672 100.946 183.818 100.993C184.286 101.144 184.755 101.29 185.234 101.425C185.37 101.467 185.51 101.503 185.646 101.545C185.922 101.618 186.203 101.691 186.484 101.758C186.635 101.795 186.786 101.831 186.937 101.868C187.396 101.972 187.849 102.066 188.307 102.154C188.479 102.185 188.651 102.222 188.823 102.248C189.089 102.29 189.359 102.342 189.63 102.378C189.896 102.415 190.177 102.451 190.458 102.488C190.786 102.529 191.12 102.566 191.453 102.597C191.661 102.618 191.87 102.633 192.078 102.649C192.401 102.675 192.724 102.696 193.052 102.711C193.349 102.727 193.641 102.738 193.938 102.743C194.172 102.748 194.406 102.753 194.635 102.753C194.906 102.753 195.177 102.748 195.448 102.743C195.745 102.738 196.042 102.727 196.339 102.717C196.635 102.701 196.927 102.685 197.219 102.665C197.422 102.649 197.63 102.633 197.833 102.613C198.24 102.576 198.651 102.534 199.062 102.477C199.229 102.456 199.396 102.43 199.562 102.409C199.88 102.363 200.203 102.31 200.521 102.258C200.687 102.232 200.854 102.201 201.016 102.17C201.443 102.092 201.87 102.003 202.297 101.904C202.448 101.873 202.599 101.831 202.755 101.795C203.125 101.706 203.495 101.607 203.859 101.503C203.964 101.477 204.062 101.451 204.167 101.42C204.609 101.29 205.052 101.149 205.49 101.003C205.625 100.956 205.755 100.909 205.891 100.863C206.333 100.706 206.781 100.545 207.219 100.368C207.292 100.336 207.359 100.31 207.427 100.279C207.828 100.118 208.229 99.9407 208.625 99.7636C208.734 99.7115 208.844 99.6646 208.953 99.6125C209.391 99.4094 209.828 99.1907 210.26 98.9667C210.349 98.9198 210.438 98.8677 210.526 98.8209C210.922 98.6125 211.312 98.3938 211.703 98.1646C211.771 98.1229 211.844 98.0813 211.911 98.0396C212.344 97.7844 212.766 97.5136 213.188 97.2375C213.281 97.1698 213.38 97.1073 213.474 97.0448C213.906 96.7532 214.328 96.4563 214.75 96.1438C215.167 95.8313 215.578 95.5032 215.974 95.1802C216.062 95.1021 216.151 95.0344 216.24 94.9563C216.625 94.6334 217.005 94.3052 217.375 93.9667C217.438 93.9094 217.495 93.8521 217.552 93.7948C217.88 93.4875 218.203 93.175 218.516 92.8573C218.589 92.7896 218.661 92.7167 218.729 92.6438C219.073 92.2948 219.401 91.9354 219.724 91.5709C219.802 91.4823 219.88 91.3938 219.958 91.3052C220.245 90.9719 220.526 90.6386 220.797 90.3C220.844 90.2427 220.891 90.1854 220.938 90.1282C221.234 89.7584 221.516 89.3729 221.792 88.9927C221.875 88.8782 221.958 88.7636 222.036 88.649C222.307 88.2688 222.568 87.8886 222.818 87.4979C222.875 87.4094 222.927 87.3209 222.984 87.2323C223.188 86.9094 223.385 86.5813 223.578 86.2532C223.656 86.1125 223.734 85.9823 223.813 85.8469C224.026 85.4667 224.234 85.0813 224.432 84.6959C224.51 84.5448 224.583 84.3938 224.656 84.2479C224.802 83.9563 224.943 83.6646 225.073 83.3677C225.146 83.2167 225.219 83.0604 225.286 82.9094C225.453 82.5292 225.609 82.149 225.766 81.7688C225.839 81.5761 225.911 81.3886 225.984 81.1959C226.089 80.9198 226.193 80.6386 226.286 80.3573C226.385 80.0813 226.479 79.8 226.568 79.5188C226.651 79.2636 226.729 79.0032 226.807 78.7427C226.875 78.5188 226.938 78.3 227 78.0761C227.078 77.7844 227.151 77.4927 227.219 77.2011C227.297 76.8886 227.37 76.5761 227.438 76.2636C227.479 76.0552 227.521 75.8521 227.563 75.6438C227.625 75.3209 227.688 74.9979 227.74 74.675C227.786 74.3938 227.833 74.1177 227.87 73.8313C227.911 73.55 227.943 73.2948 227.974 73.024C227.995 72.8521 228.016 72.6802 228.031 72.5032C228.078 72.0396 228.12 71.5761 228.146 71.1125C228.156 70.9563 228.167 70.8 228.177 70.6438C228.188 70.3573 228.198 70.0657 228.208 69.7792C228.208 69.6386 228.208 69.4927 228.208 69.3521C228.219 68.8573 228.214 68.3573 228.203 67.8625C228.198 67.7115 228.193 67.5657 228.188 67.4146C228.031 63.8573 227.354 60.399 226.156 57.0396C224.958 53.6854 223.286 50.5813 221.151 47.7271C220.766 47.2167 220.37 46.7167 219.964 46.2323C229.917 61.1802 226.526 81.5448 211.964 92.4094C197.401 103.279 176.922 100.732 165.417 86.9407C165.771 87.4719 166.135 87.9927 166.516 88.5032C168.552 91.2427 170.938 93.6386 173.667 95.6907C176.391 97.7375 179.354 99.3625 182.552 100.555ZM203.318 63.3417C203.547 63.4823 203.797 63.5604 204.062 63.5813C204.328 63.5969 204.589 63.5604 204.839 63.4615C205.083 63.3573 205.297 63.2115 205.479 63.0084C205.656 62.8104 205.781 62.5813 205.854 62.3209C205.927 62.0657 205.938 61.8052 205.891 61.5396C205.839 61.2792 205.734 61.0396 205.573 60.8209C205.411 60.6073 205.214 60.4407 204.974 60.3209C204.734 60.2011 204.479 60.1386 204.214 60.1334C203.943 60.1334 203.687 60.1906 203.448 60.3052C203.203 60.4198 203 60.5865 202.839 60.7948C202.672 61.0084 202.562 61.2427 202.505 61.5032C202.448 61.7688 202.458 62.0292 202.521 62.2896C202.641 62.7479 202.906 63.1021 203.318 63.3417ZM209.677 72.05C210.13 72.4407 216.063 76.0917 218.328 76.1854C218.917 76.2115 219.547 75.7792 220.156 75.1334C221.464 71.399 222.021 67.5604 221.833 63.6125C221.432 62.8157 220.948 62.2219 220.375 62.0761C219.828 61.9407 218.995 61.9511 218.047 62.0448C217.807 62.0709 217.563 62.0969 217.318 62.1334C216.818 62.2011 216.302 62.2844 215.786 62.3834C213.479 62.8104 211.214 63.4459 210.906 63.5813C210.75 63.6542 210.536 63.9146 210.302 64.274C210.042 64.7011 209.807 65.1386 209.604 65.5917C209.562 67.0032 209.365 68.3886 209 69.7532C209.151 70.8104 209.422 71.8209 209.682 72.05H209.677ZM197.328 55.3677C197.526 55.4875 197.74 55.5604 197.964 55.5917C198.193 55.6282 198.417 55.6125 198.635 55.5552C198.859 55.4979 199.062 55.4042 199.245 55.2636C199.427 55.1282 199.578 54.9615 199.693 54.7636C199.75 54.6646 199.802 54.5552 199.839 54.4459C199.974 54.0604 199.969 53.675 199.828 53.2896C199.688 52.9042 199.443 52.6073 199.089 52.399C198.99 52.3417 198.88 52.2896 198.771 52.2532C198.354 52.1073 197.943 52.1229 197.536 52.3C197.125 52.4719 196.833 52.7584 196.646 53.1594C196.458 53.5657 196.432 53.9771 196.562 54.399C196.698 54.8209 196.953 55.1438 197.333 55.3677H197.328ZM192.073 47.0657C193.484 47.1073 194.87 47.3104 196.234 47.6698C197.297 47.524 198.307 47.2531 198.531 46.9927C198.922 46.5396 202.573 40.6073 202.667 38.3469C202.682 37.9771 202.521 37.5917 202.24 37.2063C202.182 37.1334 202.125 37.05 202.057 36.9771C201.917 36.8157 201.771 36.6594 201.615 36.5136C200.693 36.1907 199.755 35.9146 198.807 35.6802C198.333 35.5657 197.854 35.4615 197.38 35.3729C194.974 34.9042 192.542 34.7271 190.094 34.8417C189.995 34.8938 189.901 34.9407 189.807 34.9979C189.25 35.3104 188.828 35.675 188.635 36.0865C188.604 36.1594 188.578 36.2271 188.562 36.3C188.474 36.6438 188.448 37.0969 188.464 37.6177C188.495 38.4563 188.589 39.2896 188.729 40.1177C188.75 40.2427 188.776 40.3729 188.797 40.5032C188.953 41.399 189.146 42.3052 189.339 43.1125C189.422 43.4563 189.5 43.7792 189.573 44.0813C189.703 44.5761 189.818 44.9927 189.906 45.2948C189.943 45.4146 189.974 45.5188 190 45.5969C190.031 45.675 190.052 45.7323 190.068 45.7688C190.089 45.8157 190.12 45.8573 190.151 45.899C190.432 46.2115 191.219 46.6802 192.073 47.0657ZM207.682 44.8C207.453 45.0969 207.229 45.4146 207 45.7323L206.781 46.0552C206.63 46.2688 206.484 46.4875 206.344 46.7011C205.703 47.675 205.135 48.6177 204.734 49.3104C204.651 49.4667 204.568 49.6073 204.5 49.7323C204.464 49.7948 204.427 49.8573 204.401 49.9094C204.281 50.1282 204.203 50.2844 204.177 50.3573C204.13 50.4771 204.141 50.6959 204.182 50.9719C204.198 51.0657 204.219 51.1646 204.245 51.2688C204.354 51.7532 204.5 52.2271 204.677 52.6959C204.917 52.9459 205.151 53.2063 205.375 53.4771C205.604 53.7427 205.823 54.0188 206.036 54.3052C206.146 54.4459 206.24 54.5969 206.344 54.7427C206.646 55.175 206.932 55.6177 207.198 56.0709C207.839 56.55 208.505 56.9667 208.943 57.1334C209.057 57.1854 209.172 57.2115 209.297 57.2115C209.464 57.1907 209.625 57.1594 209.786 57.1229C209.849 57.1125 209.917 57.0969 209.984 57.0813C210.125 57.05 210.286 57.0136 210.458 56.9719C211.234 56.7896 212.302 56.5136 213.417 56.175C213.661 56.0969 213.911 56.0188 214.161 55.9407L214.531 55.8157C214.901 55.6907 215.271 55.5656 215.62 55.4302C215.74 55.3886 215.854 55.3417 215.969 55.2948C216.995 54.8886 217.865 54.4511 218.339 54.0188C218.453 53.9146 218.542 53.7896 218.615 53.6542C218.651 53.5813 218.682 53.5032 218.714 53.425C218.771 53.2532 218.818 53.0761 218.844 52.899C218.885 52.5865 218.901 52.274 218.885 51.9563C218.255 50.6438 217.536 49.3834 216.724 48.175C216.448 47.7688 216.161 47.3625 215.865 46.9667C215.568 46.5709 215.266 46.1802 214.953 45.8C214.323 45.0448 213.672 44.3261 212.984 43.6438C212.646 43.3052 212.297 42.9719 211.943 42.6542C211.74 42.5813 211.531 42.524 211.323 42.4823C210.922 42.3938 210.552 42.3729 210.24 42.4302C210.083 42.4615 209.943 42.5136 209.807 42.5917C209.26 42.9198 208.594 43.6334 207.911 44.4979C207.833 44.5969 207.76 44.7011 207.682 44.8ZM197.99 60.3104C197.182 59.2219 196.167 58.399 194.938 57.8313C194.703 57.7219 194.464 57.6282 194.219 57.5396C193.911 57.4354 193.599 57.3469 193.281 57.274C192.964 57.2063 192.641 57.1542 192.312 57.1282C191.99 57.0969 191.661 57.0865 191.339 57.0969C191.01 57.1073 190.687 57.1386 190.365 57.1854C190.042 57.2375 189.724 57.3052 189.411 57.3938C189.094 57.4823 188.786 57.5865 188.484 57.7167C188.187 57.8417 187.891 57.9875 187.609 58.149C187.328 58.3104 187.052 58.4875 186.792 58.6802C186.531 58.8781 186.281 59.0865 186.047 59.3157C185.812 59.5396 185.589 59.7792 185.38 60.0292C185.177 60.2844 184.984 60.55 184.812 60.8261C184.635 61.1021 184.479 61.3886 184.339 61.6802C184.203 61.9771 184.083 62.2792 183.979 62.5865C183.875 62.899 183.792 63.2115 183.729 63.5344C183.667 63.8521 183.62 64.175 183.599 64.5032C183.573 64.8261 183.568 65.1542 183.583 65.4771C183.599 65.7375 183.62 65.9927 183.656 66.2479C183.849 67.5865 184.354 68.8 185.167 69.8834C185.479 70.3104 185.828 70.7011 186.219 71.0552C186.609 71.4146 187.031 71.7271 187.479 72.0032C187.932 72.274 188.406 72.5032 188.906 72.6802C189.401 72.8625 189.911 72.9927 190.437 73.0709C190.958 73.149 191.484 73.175 192.01 73.149C192.542 73.1229 193.057 73.0448 193.573 72.9146C194.083 72.7844 194.578 72.6073 195.057 72.3834C195.536 72.1542 195.984 71.8834 196.406 71.5657C196.833 71.2532 197.219 70.899 197.573 70.5032C197.927 70.1125 198.24 69.6854 198.505 69.2323C198.776 68.7792 199 68.3 199.172 67.8C199.349 67.3052 199.474 66.7948 199.547 66.2688C199.62 65.7479 199.641 65.2219 199.609 64.6907C199.583 64.1646 199.5 63.6438 199.365 63.1334C199.234 62.6229 199.052 62.1282 198.818 61.6542C198.589 61.1802 198.312 60.7323 197.99 60.3104ZM179.49 59.9459C179.792 60.1229 180.109 60.2011 180.458 60.1854C180.802 60.1646 181.115 60.0552 181.396 59.8521C181.583 59.7115 181.734 59.5396 181.854 59.3417C181.974 59.1386 182.047 58.925 182.078 58.6959C182.094 58.5813 182.099 58.4719 182.089 58.3625C182.068 57.9823 181.937 57.649 181.693 57.3573C181.448 57.0657 181.146 56.8729 180.776 56.7844C180.406 56.6959 180.047 56.7271 179.698 56.8729C179.349 57.0188 179.078 57.2584 178.885 57.5865C178.703 57.8886 178.625 58.2167 178.646 58.5657C178.682 59.175 178.964 59.6386 179.49 59.9459ZM170.99 48.7636C171.661 49.2896 172.432 49.8313 173.187 50.3313C173.401 50.4719 173.615 50.6125 173.828 50.7427C174.984 51.4823 176.031 52.0813 176.547 52.3521C176.687 52.425 176.786 52.4719 176.839 52.4927C177.161 52.6177 178.177 52.3729 179.177 51.9979C179.432 51.7584 179.693 51.524 179.958 51.2948C180.229 51.0709 180.505 50.8469 180.792 50.6334C181.078 50.4198 181.365 50.2219 181.661 50.0292C181.953 49.8365 182.25 49.649 182.552 49.4771C183.198 48.6229 183.719 47.7219 183.698 47.3782C183.693 47.3209 183.672 47.2115 183.641 47.0552C183.531 46.4875 183.255 45.3104 182.875 43.9875C182.807 43.7479 182.734 43.5031 182.661 43.2584C182.396 42.3938 182.099 41.5032 181.781 40.7063C181.693 40.4771 181.599 40.2584 181.505 40.0448C181.458 39.9407 181.411 39.8417 181.365 39.7427C181.271 39.5396 181.177 39.3521 181.083 39.1802C181.036 39.0969 180.984 39.0084 180.937 38.9302C180.849 38.7844 180.755 38.6438 180.651 38.5084C180.604 38.4459 180.557 38.3886 180.505 38.3365C180.203 38.0084 179.703 37.8469 179.094 37.8C178.875 37.7844 178.661 37.7792 178.448 37.7896C177.583 38.2063 176.734 38.6646 175.901 39.1646C175.068 39.6646 174.25 40.2167 173.458 40.8104C172.661 41.4042 171.906 42.0292 171.182 42.6854C170.464 43.3417 169.786 44.024 169.141 44.7323C169.005 45.1229 168.922 45.5188 168.891 45.9302C168.885 46.0188 168.885 46.1073 168.891 46.1907C168.901 46.4302 168.964 46.6542 169.078 46.8677C169.12 46.925 169.156 46.9875 169.203 47.05C169.302 47.1907 169.411 47.3209 169.526 47.4511C169.589 47.5188 169.656 47.5865 169.724 47.6542C169.865 47.7948 170.021 47.9407 170.182 48.0865C170.26 48.1646 170.349 48.2375 170.437 48.3104C170.604 48.4615 170.792 48.6125 170.984 48.7636H170.99ZM188.255 50.7532C188.141 50.7636 188.026 50.7792 187.911 50.8104C187.604 50.8886 187.333 51.0396 187.109 51.2688C186.885 51.4927 186.74 51.7636 186.661 52.0709C186.589 52.3834 186.599 52.6906 186.693 52.9927C186.786 53.3 186.958 53.5552 187.193 53.7688C187.359 53.9146 187.552 54.0292 187.76 54.1021C188.094 54.2219 188.427 54.2375 188.766 54.149C189.198 54.0396 189.536 53.8 189.776 53.4302C190.021 53.0604 190.115 52.6594 190.047 52.2219C189.979 51.7844 189.776 51.425 189.432 51.1438C189.089 50.8625 188.698 50.7323 188.255 50.7584V50.7532ZM206.318 77.6959C205.995 77.5709 204.984 77.8157 203.979 78.1907C202.958 79.1698 201.833 80.0084 200.604 80.7115C199.958 81.5657 199.437 82.4667 199.464 82.8104C199.505 83.4094 201.12 90.1854 202.656 91.8573C203.057 92.2948 203.818 92.4354 204.714 92.4042C208.271 90.6959 211.375 88.3834 214.021 85.4563C214.307 84.6073 214.385 83.8365 214.078 83.3261C212.911 81.3782 206.88 77.9094 206.318 77.6959ZM204.182 70.7063C204.026 70.4979 203.833 70.3313 203.609 70.2115C203.38 70.0865 203.135 70.0188 202.88 70.0084C202.62 69.9927 202.375 70.0396 202.135 70.1386C201.896 70.2323 201.688 70.3782 201.516 70.5709C201.359 70.7479 201.24 70.9459 201.161 71.1698C201.115 71.3104 201.083 71.4511 201.073 71.6021C201.062 71.7479 201.068 71.8938 201.099 72.0448C201.125 72.1907 201.167 72.3261 201.234 72.4615C201.297 72.5969 201.375 72.7219 201.469 72.8365C201.568 72.9511 201.672 73.05 201.797 73.1334C201.917 73.2219 202.047 73.2896 202.182 73.3417C202.323 73.3938 202.469 73.4302 202.615 73.4459C202.76 73.4615 202.906 73.4563 203.057 73.4354C203.203 73.4094 203.344 73.3677 203.479 73.3104C203.615 73.2532 203.745 73.175 203.859 73.0865C203.974 72.9927 204.078 72.8886 204.167 72.7688C204.26 72.649 204.333 72.524 204.385 72.3834C204.443 72.2479 204.484 72.1073 204.5 71.9615C204.521 71.8104 204.521 71.6646 204.505 71.5188C204.484 71.3677 204.448 71.2271 204.396 71.0917C204.339 70.9511 204.266 70.8209 204.182 70.7063ZM194.734 75.9875C194.615 75.9927 194.5 76.0136 194.385 76.0396C194.167 76.0969 193.964 76.1959 193.781 76.3313C193.599 76.4667 193.448 76.6386 193.333 76.8313C193.214 77.0292 193.141 77.2427 193.109 77.4667C193.078 77.6959 193.089 77.9198 193.146 78.1386C193.203 78.3625 193.297 78.5657 193.438 78.7479C193.573 78.9302 193.74 79.0813 193.938 79.1959C194.135 79.3104 194.349 79.3886 194.573 79.4198C194.797 79.4511 195.021 79.4407 195.245 79.3834C195.469 79.3261 195.667 79.2271 195.849 79.0917C196.036 78.9511 196.182 78.7844 196.302 78.5917C196.417 78.3938 196.49 78.1802 196.521 77.9563C196.557 77.7271 196.542 77.5032 196.484 77.2844C196.427 77.0552 196.328 76.8521 196.188 76.6646C195.823 76.1854 195.339 75.9615 194.734 75.9875ZM178.531 66.6646C178.312 66.7219 178.109 66.8209 177.927 66.9563C177.74 67.0917 177.594 67.2584 177.474 67.4563C177.359 67.6542 177.286 67.8677 177.255 68.0917C177.219 68.3209 177.234 68.5448 177.292 68.7636C177.349 68.9875 177.443 69.1854 177.583 69.3729C177.719 69.5552 177.885 69.7011 178.083 69.8209C178.281 69.9354 178.49 70.0084 178.719 70.0448C178.943 70.0761 179.167 70.0604 179.391 70.0084C179.609 69.9511 179.812 69.8521 179.995 69.7167C180.177 69.5761 180.328 69.4094 180.443 69.2115C180.562 69.0188 180.635 68.8052 180.667 68.5761C180.698 68.3521 180.687 68.1282 180.63 67.9042C180.573 67.6802 180.474 67.4771 180.333 67.2896C180.125 67.0136 179.854 66.8209 179.526 66.7063C179.198 66.5917 178.87 66.5761 178.531 66.6646ZM173.479 58.1438C173.464 58.1334 173.443 58.1177 173.422 58.1021C173.344 58.0448 173.224 57.9615 173.068 57.8573C172.703 57.6177 172.125 57.2636 171.437 56.8625C170.656 56.4094 169.724 55.8938 168.792 55.4302C168.672 55.3729 168.557 55.3156 168.443 55.2584C167.687 54.8834 166.917 54.5604 166.125 54.2896C166.026 54.2532 165.927 54.2271 165.833 54.1959C165.505 54.0969 165.172 54.0344 164.828 54.0084C164.24 53.9823 163.609 54.4146 162.995 55.0604C161.693 58.7948 161.135 62.6386 161.323 66.5865C161.724 67.3782 162.208 67.9719 162.781 68.1177C163.328 68.2531 164.161 68.2479 165.109 68.149C165.823 68.0761 166.599 67.9563 167.365 67.8157L167.75 67.7427C168.005 67.6906 168.26 67.6386 168.51 67.5865C169.13 67.4511 169.729 67.3104 170.25 67.1802C171.302 66.9198 172.078 66.6907 172.25 66.6125C172.562 66.4719 173.109 65.5761 173.552 64.6021C173.557 64.2532 173.578 63.9042 173.609 63.55C173.646 63.2011 173.682 62.8521 173.734 62.5032C173.833 61.8104 173.974 61.1229 174.156 60.4407C174.031 59.5136 173.802 58.6229 173.573 58.2636C173.547 58.2219 173.516 58.1802 173.479 58.1438ZM178.979 79.8365C179.104 79.5136 178.859 78.5032 178.484 77.4979C178.125 77.1177 177.786 76.7167 177.453 76.3052C177.344 76.1646 177.229 76.0292 177.125 75.8886C176.911 75.6021 176.708 75.3104 176.516 75.0188C176.323 74.7219 176.141 74.425 175.964 74.1229C175.109 73.4771 174.208 72.9563 173.865 72.9823C173.266 73.0292 166.49 74.6386 164.823 76.175C164.38 76.5761 164.24 77.3365 164.271 78.2323C165.979 81.7896 168.292 84.8938 171.219 87.5396C171.323 87.5761 171.427 87.6073 171.531 87.6386C171.729 87.6907 171.927 87.7323 172.13 87.7636C172.609 87.8313 173.031 87.7896 173.349 87.5969C175.292 86.4302 178.766 80.399 178.979 79.8365ZM181.547 93.6802C185.276 94.9823 189.12 95.5396 193.068 95.3521C193.865 94.9511 194.458 94.4719 194.599 93.899C195.151 91.7011 193.339 84.9771 193.094 84.4302C192.953 84.1177 192.062 83.5709 191.083 83.1282C190.734 83.1177 190.385 83.0969 190.031 83.0657C188.979 82.9771 187.943 82.7948 186.922 82.524C185.865 82.6646 184.854 82.9407 184.63 83.2011C184.578 83.2584 184.479 83.399 184.344 83.6073C184.172 83.8729 183.937 84.2427 183.677 84.6802C183.573 84.8573 183.458 85.0396 183.344 85.2375C182.146 87.3 180.552 90.3625 180.49 91.8469C180.464 92.4354 180.896 93.0657 181.542 93.6802H181.547ZM185.828 74.8261C185.63 74.7063 185.417 74.6334 185.193 74.6021C184.964 74.5709 184.74 74.5813 184.521 74.6386C184.297 74.6959 184.094 74.7948 183.911 74.9302C183.729 75.0657 183.578 75.2323 183.464 75.4302C183.406 75.5344 183.354 75.6386 183.318 75.7479C183.12 76.3209 183.203 76.8521 183.562 77.3365C183.63 77.425 183.703 77.5084 183.786 77.5865C183.969 77.7532 184.177 77.8729 184.406 77.9459C184.641 78.024 184.875 78.05 185.12 78.024C185.359 78.0032 185.589 77.9302 185.802 77.8104C186.01 77.6854 186.193 77.5292 186.333 77.3313C186.479 77.1386 186.578 76.9198 186.63 76.6802C186.682 76.4459 186.687 76.2063 186.635 75.9667C186.589 75.7271 186.495 75.5084 186.354 75.3104C186.214 75.1125 186.036 74.9511 185.828 74.8261ZM158.781 21.1542C183.521 2.68544 218.849 7.8417 238.438 32.4459C238.083 31.9354 237.724 31.4302 237.354 30.9354C218.516 5.69586 182.656 0.482317 157.417 19.3209C132.177 38.1594 126.969 74.0188 145.802 99.2584C146.177 99.7584 146.557 100.248 146.943 100.732C128.932 74.9511 134.036 39.6177 158.781 21.1542Z" fill="#9A7C3C"/>
</svg>
